<svg width="200" height="40" viewBox="0 0 200 40" fill="none" xmlns="http://www.w3.org/2000/svg">
<g id="Group 1">
<path id="Vector" d="M51.0251 9.49696C52.2262 9.49696 53.2124 9.72918 53.9837 10.1936C54.2157 10.3149 54.4566 10.4182 54.7044 10.5027C54.8451 10.5597 55.0026 10.5597 55.1433 10.5027C55.201 10.4695 55.25 10.4235 55.2866 10.368C55.3231 10.3126 55.3462 10.2494 55.354 10.1835C55.3931 9.9534 55.4101 9.72012 55.4047 9.48682H55.8462V13.1702H55.3869C55.3831 12.5894 55.1898 12.0255 54.8363 11.5641C54.4745 11.0681 53.9973 10.6673 53.4458 10.3963C52.6834 10.0406 51.8486 9.86715 51.0073 9.88964C50.3428 9.87743 49.6883 10.0531 49.1195 10.3963C48.5679 10.7398 48.1054 11.2085 47.7696 11.7643C47.3899 12.3907 47.1164 13.0755 46.9601 13.7909C46.7751 14.602 46.684 15.4316 46.6886 16.2634C46.6854 17.0926 46.7525 17.9205 46.8891 18.7384C47.0008 19.4486 47.2342 20.1342 47.5793 20.7651C47.8923 21.3313 48.3514 21.8036 48.9089 22.1331C49.5498 22.4879 50.2749 22.663 51.0073 22.6397C53.1422 22.6397 54.5953 21.7885 55.3666 20.0862H55.8741C55.5213 20.9522 54.9235 21.6969 54.1538 22.2293C53.3824 22.7681 52.3361 23.0374 51.015 23.0374C50.043 23.0566 49.0775 22.8764 48.1781 22.508C47.3886 22.1817 46.6788 21.6892 46.0974 21.064C45.5306 20.4401 45.0987 19.7062 44.8287 18.9082C44.2535 17.1996 44.2535 15.3501 44.8287 13.6414C45.0987 12.8434 45.5306 12.1095 46.0974 11.4856C46.6794 10.8604 47.3889 10.3671 48.1781 10.0391C49.0802 9.66652 50.049 9.48203 51.0251 9.49696ZM63.4407 22.584C63.7706 22.5928 64.0983 22.5279 64.3999 22.394C64.6517 22.2789 64.8764 22.1124 65.0596 21.9051C65.2309 21.7086 65.3634 21.4817 65.4504 21.2363C65.5337 21.0009 65.5907 20.7571 65.6204 20.5092H66.0797L65.8259 22.9817H56.4882V22.584C56.715 22.5916 56.9415 22.5607 57.1581 22.4928C57.3144 22.4431 57.4489 22.3411 57.5387 22.204C57.6336 22.043 57.6916 21.8631 57.7087 21.677C57.7372 21.4146 57.7507 21.1507 57.7493 20.8867V11.5717C57.751 11.3119 57.7374 11.0522 57.7087 10.794C57.69 10.6075 57.6321 10.4271 57.5387 10.2646C57.451 10.1233 57.3162 10.0175 57.1581 9.96562C56.9415 9.89767 56.715 9.86683 56.4882 9.87442V9.47671H61.3093V9.87696C61.0825 9.86937 60.856 9.9002 60.6394 9.96815C60.4813 10.02 60.3465 10.1259 60.2588 10.2671C60.1654 10.4297 60.1075 10.6101 60.0888 10.7965C60.061 11.0548 60.0484 11.3145 60.0507 11.5743V20.8892C60.0486 21.1532 60.0613 21.417 60.0888 21.6796C60.1059 21.8656 60.1639 22.0455 60.2588 22.2065C60.3486 22.3437 60.483 22.4457 60.6394 22.4953C60.856 22.5633 61.0825 22.5941 61.3093 22.5865L63.4407 22.584ZM71.4565 22.584V22.9817H66.6481V22.584C66.8716 22.5925 67.0949 22.5617 67.3078 22.4928C67.4602 22.4407 67.5907 22.339 67.6782 22.204C67.7747 22.0437 67.8328 21.8634 67.8482 21.677C67.878 21.4147 67.8916 21.1507 67.8889 20.8867V11.5717C67.8918 11.3119 67.8783 11.0521 67.8482 10.794C67.8307 10.6073 67.7727 10.4266 67.6782 10.2646C67.5929 10.1253 67.462 10.0197 67.3078 9.96562C67.0949 9.89674 66.8716 9.86587 66.6481 9.87442V9.47671H71.4463V9.87696C71.2195 9.86937 70.993 9.9002 70.7764 9.96815C70.6194 10.0207 70.4856 10.1265 70.3984 10.2671C70.3031 10.4288 70.245 10.6097 70.2284 10.7965C70.1983 11.0547 70.1848 11.3144 70.1878 11.5743V20.8892C70.1851 21.1532 70.1986 21.4172 70.2284 21.6796C70.2426 21.8662 70.3008 22.0467 70.3984 22.2065C70.4878 22.3429 70.6212 22.4448 70.7764 22.4953C70.9931 22.5624 71.2196 22.5924 71.4463 22.584H71.4565ZM78.3075 9.49696C79.5052 9.49696 80.4914 9.72918 81.2662 10.1936C81.4979 10.3154 81.7388 10.4187 81.9868 10.5027C82.1275 10.5597 82.285 10.5597 82.4258 10.5027C82.483 10.4691 82.5317 10.4229 82.5682 10.3675C82.6047 10.3122 82.6281 10.2492 82.6364 10.1835C82.6744 9.95329 82.6906 9.72004 82.6846 9.48682H83.1439V13.1702H82.6846C82.6819 12.5896 82.4894 12.0257 82.1365 11.5641C81.7742 11.0685 81.2971 10.6678 80.746 10.3963C79.9835 10.0409 79.1487 9.86743 78.3075 9.88964C77.6422 9.8775 76.9869 10.0531 76.4171 10.3963C75.8661 10.7405 75.4037 11.209 75.0672 11.7643C74.6885 12.3912 74.4151 13.0758 74.2578 13.7909C74.0736 14.6021 73.9834 15.4317 73.9888 16.2634C73.9843 17.0926 74.0514 17.9207 74.1893 18.7384C74.2997 19.4489 74.5333 20.1347 74.8795 20.7651C75.1915 21.3312 75.6497 21.8036 76.2065 22.1331C76.8481 22.4884 77.5742 22.6635 78.3075 22.6397C80.439 22.6397 81.8912 21.7885 82.6643 20.0862H83.1718C82.8186 20.9513 82.222 21.6957 81.4539 22.2293C80.6809 22.7681 79.6346 23.0374 78.3151 23.0374C77.3424 23.0563 76.3761 22.8761 75.4758 22.508C74.6866 22.1824 73.9775 21.6898 73.3976 21.064C72.8309 20.44 72.399 19.7061 72.1289 18.9082C71.557 17.199 71.557 15.3506 72.1289 13.6414C72.399 12.8435 72.8309 12.1096 73.3976 11.4856C73.9781 10.8599 74.6869 10.3665 75.4758 10.0391C76.3724 9.66923 77.3349 9.4848 78.305 9.49696H78.3075ZM87.663 17.2767L91.6417 11.592C91.9324 11.212 92.1525 10.783 92.2913 10.3254C92.3522 10.0239 92.1543 9.87442 91.7026 9.87442V9.47671H94.4405V9.87696C94.233 9.8734 94.0266 9.90775 93.8315 9.9783C93.6457 10.0513 93.474 10.1559 93.324 10.2874C93.1329 10.4517 92.9556 10.6313 92.7937 10.8244C92.6059 11.0448 92.3928 11.3007 92.1543 11.5844L89.5762 15.2754C89.4836 15.4108 89.4189 15.5632 89.3859 15.7238C89.3848 15.8106 89.401 15.8969 89.4336 15.9773C89.4663 16.0578 89.5148 16.131 89.5762 16.1925L93.3342 20.9196C93.4929 21.1186 93.6623 21.3089 93.8416 21.4896C94.0285 21.6831 94.2323 21.8594 94.4506 22.0165C94.6713 22.1767 94.9097 22.311 95.1611 22.4168C95.414 22.5234 95.6859 22.5777 95.9604 22.5764V22.9741H91.1393V22.5764C91.3157 22.5948 91.4935 22.5567 91.6468 22.4674C91.6925 22.4325 91.7284 22.3865 91.751 22.3337C91.7737 22.2809 91.7824 22.2231 91.7762 22.166C91.7614 22.0133 91.7101 21.8665 91.6265 21.7378C91.5326 21.5782 91.426 21.411 91.3068 21.2312L88.4877 17.6998C88.3405 17.5149 88.2339 17.4211 88.1781 17.4211C88.1223 17.4211 88.036 17.5073 87.9244 17.6745L87.7442 17.8949C87.5825 18.1064 87.4635 18.3473 87.394 18.6042C87.3413 18.8539 87.3175 19.1089 87.323 19.3641V20.8841C87.3203 21.1482 87.3338 21.4121 87.3636 21.6745C87.379 21.8608 87.4372 22.0412 87.5336 22.2015C87.6234 22.3386 87.7578 22.4406 87.9142 22.4903C88.1307 22.5586 88.3572 22.5894 88.5841 22.5815V22.9792H83.7579V22.5815C83.9815 22.5898 84.2048 22.5589 84.4176 22.4903C84.5693 22.4381 84.699 22.3363 84.7856 22.2015C84.8831 22.0417 84.9413 21.8611 84.9556 21.6745C84.9853 21.4121 84.9989 21.1482 84.9962 20.8841V11.5692C84.9991 11.3094 84.9856 11.0496 84.9556 10.7915C84.9389 10.6046 84.8808 10.4238 84.7856 10.262C84.7012 10.123 84.5712 10.0173 84.4176 9.96308C84.2048 9.89441 83.9815 9.86354 83.7579 9.87189V9.47417H88.5562V9.87696C88.3293 9.86897 88.1028 9.89982 87.8863 9.96815C87.7282 10.02 87.5934 10.1259 87.5057 10.2671C87.4112 10.4292 87.3532 10.6098 87.3357 10.7965C87.3057 11.0547 87.2921 11.3144 87.2951 11.5743V17.1475C87.2819 17.2603 87.3108 17.3739 87.3763 17.4667C87.4347 17.53 87.526 17.4768 87.6605 17.2767H87.663ZM105.932 22.5966V22.9944H101.134V22.5966C101.358 22.6052 101.581 22.5743 101.794 22.5054C101.946 22.4534 102.077 22.3517 102.164 22.2166C102.259 22.0557 102.317 21.8757 102.334 21.6897C102.364 21.4273 102.378 21.1634 102.375 20.8993V11.5844C102.378 11.3246 102.364 11.0648 102.334 10.8067C102.316 10.6202 102.258 10.4398 102.164 10.2772C102.079 10.138 101.948 10.0324 101.794 9.9783C101.581 9.90941 101.358 9.87855 101.134 9.8871V9.48936H105.932V9.87696C105.706 9.86937 105.479 9.9002 105.263 9.96815C105.106 10.0207 104.972 10.1265 104.885 10.2671C104.789 10.4288 104.731 10.6097 104.715 10.7965C104.685 11.0547 104.671 11.3144 104.674 11.5743V20.8892C104.671 21.1532 104.685 21.4172 104.715 21.6796C104.729 21.8662 104.787 22.0467 104.885 22.2065C104.974 22.3429 105.107 22.4448 105.263 22.4953C105.479 22.5624 105.706 22.5924 105.932 22.584V22.5966ZM116.07 18.366C116.27 18.6472 116.42 18.7663 116.519 18.7258C116.618 18.6852 116.668 18.5738 116.668 18.3863V11.5844C116.673 11.2902 116.653 10.9961 116.607 10.7054C116.582 10.5249 116.518 10.3521 116.42 10.1987C116.331 10.0798 116.204 9.99558 116.059 9.96054C115.872 9.91638 115.681 9.89595 115.488 9.89975V9.50203H118.249V9.87696C118.057 9.87289 117.865 9.89332 117.678 9.93775C117.534 9.97218 117.406 10.0566 117.318 10.1759C117.22 10.3296 117.155 10.5022 117.128 10.6826C117.085 10.9735 117.065 11.2675 117.069 11.5616V22.9614H116.468L108.711 12.1088C108.498 11.8301 108.346 11.7161 108.252 11.7693C108.158 11.8225 108.112 11.9441 108.112 12.1291V20.8664C108.107 21.164 108.127 21.4615 108.173 21.7556C108.197 21.9363 108.261 22.1094 108.361 22.2623C108.449 22.3819 108.576 22.4664 108.721 22.5004C108.908 22.5445 109.1 22.565 109.292 22.5612V22.9589H106.534V22.5612C106.722 22.5655 106.909 22.545 107.092 22.5004C107.236 22.4636 107.362 22.3798 107.452 22.2623C107.558 22.1124 107.624 21.938 107.643 21.7556C107.681 21.4608 107.698 21.1636 107.693 20.8664V11.5515C107.723 11.1054 107.651 10.6584 107.483 10.2443C107.343 9.99094 107.026 9.85417 106.534 9.85417V9.45642H109.711L116.07 18.366ZM123.007 11.5439L125.684 19.164C125.79 19.4174 125.894 19.5136 125.996 19.4554C126.119 19.3638 126.209 19.2336 126.25 19.0855L128.889 11.6249C129.102 11.0245 129.175 10.5939 129.109 10.3279C129.043 10.0619 128.782 9.92761 128.328 9.92761V9.5299H131.089V9.92761C130.896 9.92354 130.705 9.94397 130.518 9.98841C130.362 10.0289 130.221 10.1113 130.109 10.2266C129.969 10.3756 129.854 10.5468 129.769 10.7332C129.638 11.0051 129.524 11.2852 129.429 11.5717L125.369 23.0425H124.77L120.731 11.6427C120.611 11.3235 120.502 11.0549 120.401 10.8346C120.317 10.6375 120.195 10.4585 120.043 10.3076C119.904 10.175 119.737 10.0762 119.553 10.0188C119.326 9.9526 119.09 9.92181 118.853 9.92761V9.5299H123.674V9.92761C123.126 9.92761 122.827 10.0441 122.773 10.2772C122.72 10.5103 122.794 10.9207 123.007 11.5312V11.5439ZM136.481 22.5966V22.9944H131.682V22.5966C131.906 22.605 132.129 22.5741 132.342 22.5054C132.494 22.4527 132.624 22.3511 132.713 22.2166C132.807 22.0557 132.865 21.8757 132.882 21.6897C132.91 21.4272 132.923 21.1633 132.921 20.8993V11.5844C132.923 11.3246 132.91 11.065 132.882 10.8067C132.864 10.6202 132.806 10.4398 132.713 10.2772C132.627 10.1385 132.496 10.0331 132.342 9.9783C132.129 9.90962 131.906 9.87876 131.682 9.8871V9.48936H136.481V9.87696C136.254 9.86937 136.027 9.9002 135.811 9.96815C135.653 10.02 135.518 10.1259 135.43 10.2671C135.337 10.4297 135.279 10.6101 135.26 10.7965C135.231 11.0548 135.218 11.3144 135.219 11.5743V20.8892C135.218 21.1532 135.232 21.4171 135.26 21.6796C135.277 21.8656 135.335 22.0455 135.43 22.2065C135.52 22.3437 135.654 22.4457 135.811 22.4953C136.027 22.5624 136.254 22.5924 136.481 22.584V22.5966ZM149.394 9.5299C149.434 9.94029 149.477 10.3532 149.525 10.7661C149.574 11.1791 149.614 11.5895 149.655 12.0024H149.196C149.165 11.7537 149.104 11.5097 149.015 11.2753C148.922 11.0308 148.786 10.8045 148.615 10.6065C148.431 10.3992 148.207 10.2327 147.955 10.1176C147.653 9.98374 147.326 9.91882 146.996 9.92761H145.757C145.531 9.91963 145.304 9.9505 145.088 10.0188C144.931 10.0687 144.799 10.1754 144.717 10.3177C144.628 10.484 144.573 10.6668 144.557 10.8548C144.528 11.1163 144.514 11.3795 144.517 11.6427V20.9399C144.514 21.1997 144.527 21.4595 144.557 21.7176C144.574 21.9031 144.628 22.0832 144.717 22.247C144.799 22.3894 144.931 22.4961 145.088 22.546C145.304 22.6143 145.531 22.6452 145.757 22.6372V23.0349H140.979V22.6372C141.205 22.645 141.431 22.6142 141.647 22.546C141.803 22.4961 141.936 22.3894 142.017 22.247C142.106 22.0832 142.16 21.9031 142.177 21.7176C142.207 21.4595 142.221 21.1997 142.218 20.9399V11.6427C142.22 11.3795 142.207 11.1163 142.177 10.8548C142.161 10.6668 142.107 10.484 142.017 10.3177C141.936 10.1754 141.803 10.0687 141.647 10.0188C141.431 9.95064 141.205 9.91977 140.979 9.92761H139.711C139.381 9.91882 139.053 9.98374 138.752 10.1176C138.5 10.2327 138.275 10.3992 138.092 10.6065C137.921 10.803 137.788 11.0299 137.701 11.2753C137.618 11.5107 137.561 11.7545 137.531 12.0024H137.072C137.112 11.5895 137.156 11.1791 137.201 10.7661C137.247 10.3532 137.293 9.94029 137.333 9.5299H149.394ZM150.294 19.6225C150.166 19.6565 150.042 19.7041 149.924 19.7644C149.799 19.8489 149.709 19.9758 149.67 20.1216L149.388 20.8993C149.29 21.1834 149.21 21.4737 149.15 21.7682C149.104 21.934 149.104 22.1091 149.15 22.2749C149.172 22.3349 149.208 22.3889 149.255 22.4328C149.302 22.4768 149.358 22.5094 149.419 22.5282C149.594 22.5816 149.777 22.6056 149.959 22.5992V22.9969H147.201V22.5992C147.479 22.6049 147.756 22.5647 148.021 22.4801C148.147 22.4267 148.258 22.3445 148.346 22.2402C148.434 22.136 148.497 22.0125 148.528 21.8797L152.926 9.46656H153.537L157.937 21.9354C157.968 22.0635 158.031 22.1818 158.12 22.2796C158.208 22.3773 158.32 22.4515 158.445 22.4953C158.748 22.5694 159.061 22.6026 159.373 22.5941V22.9918H154.552V22.5941C155.113 22.5941 155.43 22.4801 155.501 22.2546C155.572 22.0292 155.501 21.5757 155.247 20.8968L154.567 18.9436C154.448 18.6903 154.207 18.5839 153.847 18.6624L150.294 19.6225ZM152.593 13.3197C152.515 13.1069 152.423 13.003 152.324 13.0106C152.225 13.0182 152.139 13.1196 152.071 13.3197L150.071 18.9664C150.046 19.0327 150.039 19.1043 150.051 19.1741C150.066 19.2349 150.173 19.2375 150.373 19.1741L153.771 18.2774C153.899 18.2483 154.015 18.178 154.1 18.0772C154.174 17.9835 154.164 17.8239 154.07 17.5706L152.593 13.3197ZM169.246 9.51975C169.287 9.93015 169.33 10.3431 169.376 10.756C169.421 11.1689 169.467 11.5793 169.508 11.9923H169.046C169.018 11.7432 168.957 11.4988 168.866 11.2652C168.774 11.0203 168.639 10.7938 168.467 10.5964C168.284 10.3891 168.059 10.2225 167.808 10.1075C167.506 9.97362 167.178 9.90871 166.848 9.9175H165.608C165.381 9.90991 165.154 9.94074 164.938 10.0087C164.782 10.0601 164.65 10.1663 164.567 10.3076C164.48 10.4748 164.426 10.6571 164.407 10.8447C164.38 11.1064 164.367 11.3694 164.369 11.6325V20.9297C164.367 21.1895 164.38 21.4492 164.407 21.7074C164.427 21.8925 164.481 22.0722 164.567 22.2369C164.65 22.3782 164.782 22.4845 164.938 22.5358C165.154 22.6038 165.381 22.6346 165.608 22.627V23.0248H160.83V22.627C161.057 22.6346 161.283 22.6038 161.5 22.5358C161.656 22.4853 161.788 22.3788 161.87 22.2369C161.956 22.0722 162.011 21.8925 162.03 21.7074C162.059 21.4492 162.072 21.1895 162.071 20.9297V11.6325C162.072 11.3694 162.058 11.1063 162.03 10.8447C162.011 10.6571 161.957 10.4748 161.87 10.3076C161.788 10.1657 161.656 10.0592 161.5 10.0087C161.283 9.94074 161.057 9.90991 160.83 9.9175H159.561C159.231 9.90871 158.903 9.97362 158.602 10.1075C158.35 10.2219 158.125 10.3885 157.942 10.5964C157.77 10.7922 157.637 11.0193 157.551 11.2652C157.467 11.5002 157.41 11.7442 157.381 11.9923H156.922C156.963 11.5793 157.006 11.1689 157.051 10.756C157.097 10.3431 157.14 9.93015 157.181 9.51975H169.246ZM174.925 22.5865V22.9842H170.127V22.5865C170.35 22.5949 170.574 22.564 170.787 22.4953C170.938 22.4431 171.068 22.3414 171.155 22.2065C171.252 22.0467 171.31 21.8662 171.325 21.6796C171.354 21.4172 171.368 21.1532 171.365 20.8892V11.5743C171.368 11.3144 171.355 11.0547 171.325 10.7965C171.308 10.6097 171.25 10.4288 171.155 10.2671C171.07 10.128 170.94 10.0224 170.787 9.96815C170.574 9.89948 170.35 9.86861 170.127 9.87696V9.47924H174.925V9.87696C174.698 9.86897 174.472 9.89982 174.255 9.96815C174.097 10.02 173.962 10.1259 173.875 10.2671C173.78 10.4292 173.722 10.6098 173.705 10.7965C173.675 11.0547 173.661 11.3144 173.664 11.5743V20.8892C173.661 21.1532 173.675 21.4172 173.705 21.6796C173.72 21.8659 173.778 22.0462 173.875 22.2065C173.964 22.3437 174.099 22.4457 174.255 22.4953C174.472 22.5628 174.698 22.5928 174.925 22.584V22.5865ZM181.411 9.4995C182.378 9.48036 183.34 9.65969 184.235 10.0264C185.021 10.3574 185.727 10.8544 186.303 11.4831C186.866 12.1137 187.297 12.85 187.572 13.649C188.157 15.356 188.157 17.2088 187.572 18.9158C187.298 19.7115 186.867 20.4439 186.303 21.0691C185.726 21.6939 185.02 22.1873 184.235 22.5156C182.419 23.2215 180.403 23.2215 178.587 22.5156C177.802 22.1873 177.097 21.6939 176.521 21.0691C175.958 20.4431 175.527 19.711 175.252 18.9158C174.667 17.2088 174.667 15.356 175.252 13.649C175.528 12.8505 175.959 12.1144 176.521 11.4831C177.096 10.8544 177.801 10.3575 178.587 10.0264C179.482 9.65924 180.443 9.47906 181.411 9.49696V9.4995ZM185.724 16.2811C185.729 15.4502 185.662 14.6205 185.524 13.801C185.411 13.0911 185.178 12.4057 184.834 11.7744C184.521 11.2087 184.064 10.7358 183.509 10.4039C182.861 10.0742 182.144 9.90238 181.416 9.90238C180.688 9.90238 179.971 10.0742 179.322 10.4039C178.768 10.736 178.312 11.2089 178.001 11.7744C177.655 12.4055 177.421 13.091 177.308 13.801C177.171 14.6206 177.104 15.4503 177.107 16.2811C177.104 17.1095 177.171 17.9366 177.308 18.7536C177.421 19.4637 177.655 20.1491 178.001 20.7803C178.313 21.3453 178.769 21.818 179.322 22.1508C179.971 22.4804 180.688 22.6523 181.416 22.6523C182.144 22.6523 182.861 22.4804 183.509 22.1508C184.064 21.818 184.521 21.3454 184.834 20.7803C185.178 20.149 185.411 19.4635 185.524 18.7536C185.661 17.9358 185.726 17.1077 185.719 16.2786L185.724 16.2811ZM197.719 18.3559C197.919 18.6371 198.069 18.7562 198.171 18.7156C198.272 18.6751 198.32 18.5636 198.32 18.3762V11.5743C198.325 11.28 198.305 10.986 198.259 10.6952C198.232 10.5148 198.167 10.3422 198.069 10.1885C197.982 10.0692 197.855 9.98479 197.711 9.95043C197.524 9.90627 197.332 9.88584 197.14 9.88964V9.49189H199.898V9.87696C199.707 9.87302 199.516 9.89345 199.33 9.93775C199.185 9.97156 199.058 10.0561 198.97 10.1759C198.871 10.3296 198.807 10.5022 198.779 10.6826C198.734 10.9733 198.714 11.2674 198.719 11.5616V22.9614H198.12L190.363 12.1088C190.15 11.8301 189.997 11.7161 189.904 11.7693C189.81 11.8225 189.764 11.9441 189.764 12.1291V20.8664C189.759 21.1639 189.779 21.4613 189.822 21.7556C189.849 21.9362 189.913 22.109 190.013 22.2623C190.1 22.3824 190.228 22.467 190.373 22.5004C190.56 22.5448 190.752 22.5652 190.944 22.5612V22.9589H188.183V22.5612C188.372 22.5656 188.561 22.5452 188.744 22.5004C188.887 22.4636 189.014 22.3798 189.104 22.2623C189.208 22.1113 189.273 21.9374 189.295 21.7556C189.332 21.4607 189.348 21.1636 189.343 20.8664V11.5515C189.373 11.1056 189.302 10.6587 189.135 10.2443C188.993 9.99094 188.675 9.85417 188.183 9.85417V9.45642H191.363L197.719 18.3559ZM48.8658 26.9691H50.3552V27.1363C50.2599 27.1333 50.1647 27.1461 50.0736 27.1743C50.0083 27.1962 49.9527 27.2401 49.9163 27.2985C49.8768 27.3668 49.8526 27.4428 49.8452 27.5214C49.8319 27.6289 49.826 27.7373 49.8275 27.8457V31.7419C49.826 31.8519 49.832 31.9619 49.8452 32.0712C49.8515 32.1491 49.8759 32.2246 49.9163 32.2916C49.9537 32.3484 50.0091 32.3912 50.0736 32.4132C50.1647 32.4414 50.2599 32.4542 50.3552 32.4512V32.6158H48.3354V32.4512C48.43 32.4545 48.5244 32.4416 48.6146 32.4132C48.6802 32.392 48.7366 32.3491 48.7744 32.2916C48.8135 32.224 48.8377 32.1488 48.8455 32.0712C48.8564 31.9618 48.8615 31.8518 48.8607 31.7419V28.0888C48.8623 28.0523 48.8553 28.0158 48.8404 27.9824C48.8314 27.9573 48.8133 27.9366 48.7896 27.9242C48.7719 27.9242 48.7465 27.9242 48.7186 27.947C48.6811 27.9863 48.6555 28.0355 48.645 28.0888L47.0718 32.6158H46.8181L45.222 28.0787C45.2038 28.0316 45.179 27.9872 45.1484 27.947C45.1307 27.9242 45.1129 27.9166 45.1002 27.9242C45.0822 27.9387 45.0704 27.9595 45.0672 27.9824C45.0616 28.0177 45.0616 28.0536 45.0672 28.0888V31.7419C45.0645 31.8657 45.073 31.9894 45.0926 32.1117C45.1028 32.1876 45.1297 32.2602 45.1713 32.3245C45.207 32.3755 45.2603 32.4116 45.321 32.4258C45.3992 32.4434 45.4793 32.4519 45.5595 32.4512V32.6158H44.405V32.4512C44.4852 32.4522 44.5653 32.4437 44.6435 32.4258C44.7043 32.4103 44.758 32.3745 44.7957 32.3245C44.8362 32.2597 44.863 32.1873 44.8744 32.1117C44.8927 31.9893 44.9012 31.8656 44.8998 31.7419V27.8634C44.9134 27.6761 44.8812 27.4883 44.8059 27.3162C44.745 27.2098 44.613 27.154 44.405 27.154V26.9869H45.7929L47.2824 31.182C47.3255 31.3061 47.3712 31.3087 47.4144 31.182L48.8658 26.9691ZM54.7018 31.2073C54.6483 31.2211 54.5964 31.2406 54.5471 31.2656C54.495 31.3008 54.458 31.3541 54.443 31.4151L54.3238 31.7419C54.2839 31.8606 54.2509 31.9816 54.2248 32.1041C54.2049 32.1737 54.2049 32.2474 54.2248 32.3169C54.234 32.3417 54.2489 32.364 54.2683 32.3821C54.2877 32.4001 54.311 32.4133 54.3364 32.4208C54.4095 32.4435 54.4858 32.4537 54.5623 32.4512V32.6158H53.4078V32.4512C53.524 32.4536 53.6398 32.4364 53.7503 32.4005C53.8031 32.3781 53.8497 32.3434 53.8863 32.2993C53.923 32.2552 53.9485 32.2031 53.9609 32.1472L55.8005 26.959H56.0543L57.8939 32.1725C57.9077 32.2258 57.9343 32.2749 57.9715 32.3155C58.0086 32.3561 58.0552 32.3871 58.1071 32.4056C58.2339 32.4373 58.3645 32.4518 58.4953 32.4486V32.6133H56.4806V32.4486C56.7166 32.4486 56.8485 32.4005 56.879 32.3068C56.8944 32.1118 56.8585 31.9162 56.7749 31.7393L56.4907 30.921C56.44 30.8096 56.3385 30.7716 56.1888 30.8045L54.7018 31.2073ZM55.6635 28.5702C55.628 28.4815 55.5925 28.4384 55.5493 28.441C55.5062 28.4435 55.4732 28.4891 55.4453 28.5702L54.608 30.9312C54.6008 30.9603 54.6008 30.9907 54.608 31.0198C54.608 31.0452 54.6587 31.0452 54.7424 31.0198L56.1634 30.6424C56.2175 30.6314 56.2659 30.6018 56.3004 30.5588C56.3309 30.5208 56.3283 30.4499 56.3004 30.3435L55.6635 28.5702ZM65.5417 30.6829C65.6255 30.7995 65.6889 30.8476 65.7295 30.8324C65.7701 30.8172 65.7929 30.7691 65.7929 30.6905V27.8634C65.7953 27.7404 65.7868 27.6175 65.7676 27.4961C65.7582 27.4192 65.7312 27.3455 65.6889 27.2807C65.6525 27.2292 65.5983 27.1931 65.5367 27.1794C65.4595 27.1605 65.3801 27.152 65.3007 27.154V26.9869H66.4527V27.154C66.3724 27.1522 66.2922 27.1607 66.2141 27.1794C66.1535 27.1937 66.1002 27.2297 66.0644 27.2807C66.0221 27.3455 65.9952 27.4192 65.9858 27.4961C65.9666 27.6175 65.9581 27.7404 65.9604 27.8634V32.6336H65.7067L62.4638 28.0964C62.375 27.9799 62.309 27.9318 62.271 27.9546C62.2329 27.9774 62.2126 28.028 62.2126 28.1066V31.7596C62.2099 31.8834 62.2184 32.0072 62.238 32.1294C62.2494 32.205 62.2762 32.2774 62.3167 32.3423C62.354 32.3928 62.4078 32.4286 62.4689 32.4436C62.5463 32.4612 62.6255 32.4697 62.7049 32.4689V32.6336H61.5529V32.4689C61.6314 32.4699 61.7098 32.4613 61.7863 32.4436C61.8461 32.4273 61.8988 32.3917 61.936 32.3423C61.9807 32.2793 62.0086 32.2061 62.0172 32.1294C62.0322 32.0067 62.039 31.8832 62.0375 31.7596V27.8634C62.0497 27.6766 62.0194 27.4895 61.9487 27.3162C61.8904 27.2098 61.7584 27.154 61.5529 27.154V26.9869H62.8825L65.5417 30.6829ZM70.3628 31.2073C70.3091 31.2206 70.2572 31.2402 70.2081 31.2656C70.1551 31.3004 70.1171 31.3537 70.1015 31.4151L69.9848 31.7419C69.9437 31.8603 69.9107 31.9813 69.8858 32.1041C69.8674 32.1739 69.8674 32.2472 69.8858 32.3169C69.8959 32.3416 69.9114 32.3637 69.9312 32.3817C69.9509 32.3996 69.9744 32.413 70 32.4208C70.073 32.4437 70.1494 32.4539 70.2258 32.4512V32.6158H69.0713V32.4512C69.1875 32.4536 69.3033 32.4364 69.4138 32.4005C69.4666 32.3781 69.5132 32.3434 69.5499 32.2993C69.5865 32.2552 69.6121 32.2031 69.6244 32.1472L71.4615 26.959H71.7153L73.5549 32.1725C73.5678 32.2262 73.5942 32.2757 73.6314 32.3164C73.6687 32.3572 73.7157 32.3879 73.7681 32.4056C73.8949 32.4375 74.0255 32.452 74.1563 32.4486V32.6133H72.1416V32.4486C72.375 32.4486 72.5095 32.4005 72.5399 32.3068C72.5554 32.1115 72.5187 31.9157 72.4334 31.7393L72.1492 30.921C72.101 30.8096 71.9995 30.7716 71.8498 30.8045L70.3628 31.2073ZM71.322 28.5702C71.289 28.4815 71.2509 28.4384 71.2103 28.441C71.1697 28.4435 71.1342 28.4891 71.1063 28.5702L70.269 30.9312C70.2618 30.9603 70.2618 30.9907 70.269 31.0198C70.269 31.0452 70.3197 31.0452 70.4034 31.0198L71.8244 30.6424C71.8785 30.6314 71.9269 30.6018 71.9614 30.5588C71.9919 30.5208 71.9868 30.4499 71.9487 30.3435L71.322 28.5702ZM81.2357 28.5119H81.0429V28.4384C81.0286 28.2026 80.9397 27.9773 80.7891 27.795C80.6405 27.6075 80.4537 27.4538 80.241 27.344C80.0899 27.276 79.9316 27.2251 79.7691 27.192C79.5881 27.1535 79.4035 27.1348 79.2185 27.1363C78.9404 27.1308 78.6662 27.2027 78.4268 27.344C78.1967 27.4891 78.0031 27.685 77.8609 27.9166C77.7027 28.1782 77.5887 28.4641 77.5235 28.7627C77.4455 29.1025 77.4072 29.4502 77.4093 29.7988C77.4077 30.1451 77.4358 30.4909 77.493 30.8324C77.5399 31.129 77.6377 31.4152 77.7823 31.6785C77.9128 31.915 78.1047 32.1119 78.338 32.2485C78.606 32.397 78.9096 32.4697 79.2159 32.4588C79.3999 32.4646 79.5836 32.4388 79.7589 32.3828C79.885 32.3423 79.9974 32.2677 80.0837 32.1674C80.1639 32.069 80.2187 31.9524 80.2436 31.828C80.2725 31.6837 80.2861 31.5368 80.2842 31.3897V30.9489C80.2852 30.8407 80.2801 30.7324 80.269 30.6247C80.2619 30.5485 80.2357 30.4753 80.1928 30.4119C80.154 30.3582 80.0957 30.3218 80.0304 30.3105C79.9382 30.2934 79.8436 30.2934 79.7513 30.3105V30.1433L81.7559 29.7937V29.9609C81.6861 29.9608 81.6171 29.975 81.5531 30.0026C81.4891 30.0303 81.4315 30.0708 81.3839 30.1217C81.3363 30.1725 81.2996 30.2326 81.2763 30.2983C81.253 30.3639 81.2435 30.4336 81.2484 30.5031V31.828H81.1063C81.0203 31.9466 80.9178 32.0524 80.8018 32.1421C80.6688 32.245 80.5229 32.3302 80.3679 32.3954C80.1938 32.4683 80.0127 32.5235 79.8274 32.5601C79.6268 32.5991 79.4229 32.6186 79.2185 32.6184C78.8131 32.6267 78.4104 32.5508 78.036 32.3954C77.7075 32.259 77.4123 32.0533 77.1707 31.7925C76.9324 31.5316 76.7502 31.2246 76.6354 30.8906C76.5101 30.5377 76.4474 30.1657 76.4501 29.7912C76.4486 29.416 76.5112 29.0433 76.6354 28.6892C76.7512 28.3557 76.9333 28.0489 77.1707 27.7874C77.4133 27.5265 77.7093 27.3208 78.0386 27.1844C78.4139 27.0291 78.8174 26.9532 79.2235 26.9615C79.4578 26.9593 79.6914 26.9865 79.9188 27.0426C80.112 27.0892 80.2974 27.1634 80.4694 27.263C80.4694 27.263 80.4948 27.263 80.5405 27.2959C80.5933 27.3257 80.6484 27.3511 80.7054 27.3719C80.7641 27.3927 80.8258 27.4037 80.8881 27.4048C80.9172 27.4056 80.9459 27.3972 80.97 27.3808C80.9941 27.3644 81.0125 27.341 81.0226 27.3136C81.0495 27.1983 81.0606 27.0798 81.0555 26.9615H81.2484V28.5043L81.2357 28.5119ZM88.409 26.9919C88.4242 27.1642 88.442 27.3339 88.4572 27.4986C88.4725 27.6633 88.4953 27.8431 88.5156 28.0204H88.3253C88.3125 27.9169 88.2887 27.815 88.2542 27.7165C88.2174 27.6132 88.1614 27.5178 88.0893 27.4353C88.0135 27.3489 87.9201 27.2798 87.8153 27.2326C87.6893 27.1761 87.5524 27.1484 87.4144 27.1515H86.511C86.4173 27.148 86.3237 27.1608 86.2344 27.1895C86.1701 27.2133 86.1156 27.2579 86.0797 27.3162C86.0414 27.385 86.0172 27.4608 86.0086 27.5391C85.9976 27.6477 85.9925 27.7568 85.9934 27.8659V29.2795C85.993 29.318 86.0075 29.3553 86.034 29.3834C86.0477 29.3985 86.0646 29.4104 86.0835 29.4183C86.1023 29.4261 86.1227 29.4298 86.1431 29.429H86.3968C86.5366 29.4327 86.6762 29.4147 86.8104 29.3757C86.9063 29.3481 86.9936 29.2967 87.0642 29.2263C87.1222 29.1632 87.1632 29.0865 87.1834 29.0034C87.2069 28.9141 87.218 28.822 87.2164 28.7298H87.4093V30.2979H87.2164C87.2178 30.2039 87.2067 30.1102 87.1834 30.0192C87.165 29.9354 87.1237 29.8582 87.0642 29.7963C86.9925 29.7285 86.9054 29.679 86.8104 29.6519C86.6766 29.6106 86.5368 29.5918 86.3968 29.5961H86.1431C86.1227 29.5953 86.1023 29.599 86.0835 29.6068C86.0646 29.6147 86.0477 29.6266 86.034 29.6418C86.0072 29.6706 85.9926 29.7088 85.9934 29.7481V31.7748C85.9925 31.8839 85.9976 31.993 86.0086 32.1016C86.0168 32.1776 86.041 32.251 86.0797 32.3169C86.1166 32.3732 86.171 32.4159 86.2344 32.4385C86.3237 32.4672 86.4173 32.48 86.511 32.4765H87.4144C87.5522 32.4804 87.6891 32.4536 87.8153 32.398C87.9202 32.3498 88.0136 32.2798 88.0893 32.1928C88.1614 32.1111 88.2173 32.0165 88.2542 31.9141C88.2881 31.8154 88.3119 31.7136 88.3253 31.6101H88.5156C88.4953 31.7875 88.475 31.9622 88.4572 32.132C88.4395 32.3017 88.4242 32.4714 88.409 32.6386H84.4938V32.4714C84.5891 32.4745 84.6843 32.4617 84.7754 32.4335C84.8399 32.4115 84.8953 32.3687 84.9327 32.3119C84.9724 32.2464 84.9967 32.1727 85.0038 32.0965C85.017 31.9881 85.023 31.8789 85.0215 31.7697V27.8634C85.023 27.7533 85.017 27.6433 85.0038 27.534C84.9978 27.4552 84.9735 27.3789 84.9327 27.3111C84.8953 27.2543 84.8399 27.2115 84.7754 27.1895C84.6843 27.1613 84.5891 27.1484 84.4938 27.1515V26.9869L88.409 26.9919ZM100.589 27.8836C100.728 27.7351 100.827 27.5539 100.878 27.3567C100.878 27.23 100.804 27.1667 100.624 27.1667V26.9995H101.779V27.1667C101.692 27.1638 101.606 27.1776 101.525 27.2073C101.448 27.2369 101.376 27.2779 101.312 27.3288C101.233 27.391 101.16 27.4596 101.094 27.534C101.02 27.6176 100.934 27.7164 100.84 27.833L99.6777 29.3859C99.6323 29.4418 99.5971 29.5053 99.5737 29.5733C99.5455 29.6609 99.5327 29.7525 99.5357 29.8444V31.7697C99.5341 31.8789 99.54 31.9881 99.5534 32.0965C99.5597 32.1745 99.584 32.2499 99.6245 32.3169C99.6599 32.3751 99.7147 32.419 99.7792 32.441C99.8676 32.4697 99.9604 32.4826 100.053 32.479V32.6462H98.0487V32.479C98.1432 32.4823 98.2376 32.4695 98.3278 32.441C98.3934 32.4184 98.4496 32.3747 98.4877 32.3169C98.526 32.2489 98.5501 32.174 98.5587 32.0965C98.5698 31.9879 98.5749 31.8789 98.574 31.7697V29.8444C98.5712 29.7528 98.5576 29.6618 98.5333 29.5733C98.5118 29.5049 98.4774 29.4413 98.4318 29.3859L97.3129 27.8659C97.2291 27.7494 97.1505 27.6481 97.0794 27.5619C97.0128 27.4817 96.9379 27.4087 96.8561 27.344C96.7804 27.2854 96.6943 27.2416 96.6024 27.2148C96.5028 27.1855 96.3992 27.1718 96.2954 27.1743V27.0071H98.3024V27.1743C98.2143 27.1631 98.1249 27.1818 98.0487 27.2275C98.0269 27.2446 98.0101 27.2673 98.0003 27.2932C97.9905 27.3191 97.9879 27.3472 97.9929 27.3744C98.0066 27.4509 98.035 27.5241 98.0766 27.5898C98.1248 27.6734 98.1806 27.7671 98.2492 27.8659L99.3174 29.3251C99.3274 29.3381 99.34 29.349 99.3544 29.3568C99.3689 29.3647 99.3848 29.3694 99.4012 29.3707C99.4181 29.3721 99.435 29.3686 99.4499 29.3605C99.4648 29.3524 99.477 29.3401 99.4849 29.3251L100.589 27.8836ZM106.562 26.9919C106.966 26.9843 107.368 27.0593 107.742 27.2123C108.071 27.3503 108.366 27.5577 108.607 27.8203C108.844 28.0839 109.025 28.3923 109.14 28.7272C109.383 29.4409 109.383 30.215 109.14 30.9287C109.025 31.2613 108.844 31.5672 108.607 31.828C108.365 32.0891 108.07 32.2955 107.742 32.4335C106.982 32.7273 106.139 32.7273 105.379 32.4335C105.051 32.2961 104.757 32.0895 104.517 31.828C104.28 31.5667 104.098 31.2609 103.981 30.9287C103.738 30.215 103.738 29.4409 103.981 28.7272C104.098 28.3926 104.28 28.0844 104.517 27.8203C104.756 27.5572 105.051 27.3497 105.379 27.2123C105.75 27.0599 106.148 26.9841 106.549 26.9894L106.562 26.9919ZM108.363 29.8267C108.365 29.4796 108.337 29.1329 108.28 28.7906C108.232 28.4927 108.134 28.2049 107.99 27.9394C107.859 27.7039 107.668 27.5066 107.437 27.3669C107.166 27.2287 106.866 27.1567 106.562 27.1567C106.257 27.1567 105.957 27.2287 105.686 27.3669C105.455 27.506 105.264 27.7034 105.133 27.9394C104.989 28.2045 104.891 28.4924 104.844 28.7906C104.732 29.476 104.732 30.1749 104.844 30.8603C104.891 31.1567 104.989 31.4429 105.133 31.7064C105.264 31.9424 105.455 32.1398 105.686 32.2789C105.958 32.4155 106.258 32.4866 106.562 32.4866C106.866 32.4866 107.166 32.4155 107.437 32.2789C107.668 32.1392 107.859 31.9419 107.99 31.7064C108.133 31.4425 108.231 31.1564 108.28 30.8603C108.333 30.5175 108.357 30.1709 108.351 29.8241L108.363 29.8267ZM114.106 26.9919V27.1566C114.01 27.1535 113.915 27.1664 113.824 27.1946C113.76 27.2158 113.705 27.2588 113.669 27.3162C113.632 27.385 113.609 27.461 113.603 27.5391C113.591 27.6485 113.585 27.7584 113.585 27.8684V31.4151C113.582 31.5866 113.606 31.7577 113.656 31.9217C113.7 32.0506 113.779 32.1647 113.885 32.251C114.003 32.3412 114.14 32.4028 114.286 32.4309C114.486 32.4697 114.69 32.4875 114.895 32.4841C115.072 32.4837 115.248 32.4685 115.422 32.4385C115.591 32.4107 115.754 32.3559 115.905 32.2764C116.046 32.1986 116.166 32.0862 116.252 31.9496C116.347 31.788 116.394 31.6024 116.387 31.4151V27.8684C116.388 27.7457 116.381 27.623 116.366 27.5011C116.358 27.4236 116.332 27.349 116.29 27.2832C116.255 27.2328 116.203 27.1968 116.143 27.1819C116.067 27.1641 115.988 27.1556 115.91 27.1566V26.9919H117.064V27.1566C116.985 27.1556 116.906 27.1642 116.828 27.1819C116.77 27.1979 116.72 27.2337 116.686 27.2832C116.648 27.3502 116.624 27.4244 116.615 27.5011C116.6 27.623 116.593 27.7457 116.595 27.8684V31.4151C116.602 31.619 116.557 31.8215 116.463 32.0028C116.375 32.1591 116.248 32.29 116.095 32.3828C115.928 32.4826 115.745 32.552 115.554 32.588C115.339 32.6318 115.12 32.6531 114.9 32.6513C114.593 32.6513 114.301 32.6361 114.024 32.6108C113.776 32.5884 113.532 32.5286 113.301 32.4335C113.107 32.354 112.937 32.2247 112.809 32.0585C112.679 31.8699 112.615 31.6437 112.626 31.4151V27.8684C112.626 27.7584 112.62 27.6485 112.608 27.5391C112.603 27.4603 112.578 27.3839 112.537 27.3162C112.5 27.2586 112.443 27.2157 112.378 27.1946C112.287 27.1661 112.193 27.1533 112.098 27.1566V26.9919H114.106ZM122.068 26.9919H122.497C122.656 26.9946 122.815 27.0098 122.971 27.0375C123.13 27.0654 123.285 27.1087 123.436 27.1667C123.584 27.2269 123.721 27.3127 123.839 27.42C123.964 27.5345 124.061 27.6757 124.123 27.833C124.197 28.0314 124.233 28.242 124.227 28.4536C124.231 28.6335 124.2 28.8125 124.136 28.9806C124.075 29.1253 123.989 29.2582 123.882 29.3732C123.773 29.4862 123.647 29.5819 123.509 29.6569C123.363 29.7353 123.211 29.8022 123.055 29.8571L124.192 31.9673C124.269 32.1341 124.39 32.2768 124.542 32.3802C124.654 32.4429 124.781 32.476 124.91 32.4765V32.6412H123.842C123.782 32.6421 123.724 32.6253 123.674 32.593C123.627 32.5629 123.588 32.5231 123.557 32.4765L122.317 30.1737C122.307 30.148 122.289 30.1261 122.265 30.1111C122.242 30.0961 122.215 30.0888 122.187 30.0901C122.135 30.0947 122.083 30.1031 122.032 30.1155L121.758 30.189C121.71 30.1993 121.666 30.2272 121.637 30.2674C121.607 30.3076 121.594 30.3572 121.599 30.4068V31.7672C121.598 31.8772 121.604 31.9871 121.616 32.0965C121.623 32.1745 121.647 32.2499 121.687 32.3169C121.725 32.3745 121.782 32.4174 121.847 32.4385C121.937 32.467 122.032 32.4798 122.126 32.4765V32.6412H120.119V32.4765C120.213 32.48 120.307 32.4672 120.396 32.4385C120.459 32.4159 120.514 32.3732 120.551 32.3169C120.591 32.2499 120.615 32.1745 120.622 32.0965C120.634 31.9871 120.64 31.8772 120.639 31.7672V27.8634C120.64 27.755 120.634 27.6468 120.622 27.5391C120.614 27.4606 120.59 27.3845 120.551 27.3162C120.515 27.2586 120.46 27.2148 120.396 27.192C120.307 27.1634 120.213 27.1505 120.119 27.154V26.9869L122.068 26.9919ZM121.601 29.9128C121.601 29.9309 121.605 29.9488 121.613 29.9648C121.622 29.9808 121.634 29.9943 121.649 30.004C121.665 30.0154 121.684 30.0229 121.703 30.026C121.722 30.0291 121.742 30.0276 121.761 30.0217L122.038 29.9457C122.195 29.9064 122.348 29.8486 122.492 29.7735C122.638 29.7006 122.771 29.6039 122.885 29.4872C123.004 29.3625 123.098 29.2164 123.162 29.0565C123.235 28.8633 123.27 28.6577 123.266 28.4511C123.273 28.2335 123.231 28.0171 123.144 27.8178C123.08 27.6745 122.985 27.5472 122.865 27.4451C122.746 27.343 122.605 27.2687 122.454 27.2275C122.332 27.1898 122.206 27.1668 122.078 27.1591C121.868 27.1591 121.736 27.2301 121.682 27.339C121.618 27.5077 121.59 27.6882 121.601 27.8684V29.9128ZM137.508 28.5347H137.298V28.4612C137.283 28.2253 137.195 28.0001 137.044 27.8178C136.895 27.6309 136.708 27.4773 136.496 27.3669C136.344 27.2985 136.185 27.2475 136.021 27.2148C135.841 27.1762 135.657 27.1575 135.473 27.1591C135.195 27.1536 134.921 27.2255 134.682 27.3669C134.451 27.5119 134.258 27.7078 134.116 27.9394C133.957 28.201 133.843 28.4869 133.778 28.7855C133.7 29.1253 133.662 29.473 133.664 29.8216C133.663 30.1679 133.691 30.5137 133.748 30.8552C133.795 31.1518 133.892 31.438 134.037 31.7013C134.167 31.9383 134.359 32.1354 134.593 32.2713C134.861 32.4198 135.164 32.4925 135.471 32.4816C135.655 32.4871 135.838 32.4615 136.014 32.4056C136.14 32.3651 136.252 32.2905 136.338 32.1902C136.419 32.0917 136.473 31.9752 136.498 31.8508C136.527 31.7065 136.541 31.5596 136.539 31.4125V30.9717C136.54 30.8634 136.535 30.7552 136.524 30.6475C136.517 30.5713 136.49 30.4981 136.448 30.4347C136.409 30.381 136.351 30.3446 136.285 30.3333C136.192 30.3164 136.097 30.3164 136.004 30.3333V30.1661L138.011 29.8165V29.9837C137.865 29.9954 137.728 30.0572 137.622 30.1586C137.543 30.2647 137.501 30.3935 137.501 30.5259V31.8508H137.359C137.273 31.9694 137.17 32.0752 137.054 32.1649C136.921 32.2673 136.775 32.3524 136.62 32.4182C136.446 32.4911 136.265 32.5463 136.08 32.5829C135.879 32.6218 135.675 32.6413 135.471 32.6412C135.065 32.6492 134.661 32.5733 134.286 32.4182C133.958 32.2818 133.664 32.0761 133.423 31.8153C133.185 31.5544 133.002 31.2475 132.888 30.9135C132.641 30.2004 132.641 29.4251 132.888 28.712C133.003 28.3785 133.186 28.0718 133.423 27.8102C133.665 27.5488 133.961 27.343 134.291 27.2073C134.666 27.052 135.07 26.976 135.476 26.9843C135.709 26.982 135.942 27.0092 136.168 27.0654C136.362 27.112 136.549 27.1862 136.722 27.2858C136.722 27.2858 136.747 27.2858 136.793 27.3187C136.845 27.3485 136.901 27.3739 136.958 27.3947C137.016 27.4154 137.078 27.4266 137.14 27.4277C137.169 27.4284 137.198 27.42 137.222 27.4036C137.246 27.3873 137.265 27.3638 137.275 27.3365C137.302 27.2211 137.313 27.1027 137.308 26.9843H137.501V28.5271L137.508 28.5347ZM142.69 27.0147V27.1794C142.595 27.1763 142.501 27.1891 142.411 27.2174C142.346 27.2386 142.292 27.2816 142.256 27.339C142.218 27.4078 142.196 27.4838 142.19 27.5619C142.176 27.6712 142.171 27.7812 142.172 27.8912V31.4379C142.169 31.6094 142.193 31.7805 142.243 31.9445C142.287 32.0728 142.365 32.1866 142.469 32.2739C142.588 32.3635 142.726 32.425 142.872 32.4537C143.073 32.4925 143.277 32.5103 143.481 32.5069C143.658 32.5065 143.835 32.4913 144.009 32.4613C144.177 32.4335 144.34 32.3787 144.491 32.2992C144.633 32.2214 144.753 32.109 144.839 31.9724C144.934 31.8108 144.981 31.6252 144.973 31.4379V27.8912C144.975 27.7684 144.968 27.6456 144.951 27.5239C144.944 27.4465 144.919 27.3718 144.877 27.3061C144.842 27.2556 144.79 27.2196 144.73 27.2047C144.653 27.1869 144.575 27.1784 144.496 27.1794V27.0147H145.651V27.1794C145.571 27.1783 145.492 27.1868 145.415 27.2047C145.357 27.2206 145.307 27.2566 145.273 27.3061C145.234 27.373 145.21 27.4472 145.202 27.5239C145.187 27.6458 145.18 27.7685 145.181 27.8912V31.4379C145.188 31.6421 145.142 31.8445 145.047 32.0256C144.961 32.183 144.834 32.3142 144.679 32.4056C144.514 32.5058 144.331 32.5753 144.141 32.6108C143.925 32.6548 143.705 32.676 143.484 32.6741C143.179 32.6741 142.888 32.6589 142.611 32.6336C142.362 32.6118 142.118 32.552 141.888 32.4562C141.693 32.3768 141.524 32.2475 141.396 32.0813C141.265 31.893 141.2 31.6668 141.21 31.4379V27.8912C141.211 27.7813 141.206 27.6713 141.195 27.5619C141.188 27.4834 141.163 27.4074 141.124 27.339C141.086 27.282 141.029 27.2392 140.964 27.2174C140.874 27.1889 140.78 27.1761 140.685 27.1794V27.0147H142.69ZM152.614 27.0147C152.629 27.187 152.647 27.3567 152.662 27.5214C152.677 27.686 152.7 27.8659 152.72 28.0432H152.522C152.509 27.9397 152.486 27.8378 152.451 27.7392C152.414 27.636 152.358 27.5406 152.286 27.458C152.21 27.3717 152.117 27.3026 152.012 27.2554C151.886 27.1989 151.749 27.1712 151.611 27.1743H150.708C150.614 27.1708 150.521 27.1837 150.431 27.2123C150.367 27.2361 150.313 27.2807 150.277 27.339C150.238 27.4079 150.214 27.4836 150.206 27.5619C150.194 27.6705 150.189 27.7796 150.19 27.8887V29.3023C150.19 29.3409 150.204 29.378 150.231 29.4061C150.245 29.4213 150.262 29.4332 150.28 29.4411C150.299 29.4489 150.32 29.4526 150.34 29.4518H150.594C150.734 29.4555 150.873 29.4375 151.007 29.3986C151.103 29.3715 151.191 29.32 151.261 29.2491C151.319 29.186 151.36 29.1093 151.38 29.0261C151.404 28.9369 151.415 28.8448 151.413 28.7526H151.606V30.3207H151.413C151.415 30.2267 151.404 30.133 151.38 30.042C151.362 29.9581 151.321 29.881 151.261 29.8191C151.19 29.7507 151.103 29.7011 151.007 29.6747C150.874 29.6334 150.734 29.6146 150.594 29.619H150.34C150.32 29.6181 150.299 29.6217 150.28 29.6296C150.262 29.6375 150.245 29.6494 150.231 29.6645C150.204 29.6934 150.19 29.7316 150.19 29.771V31.7976C150.189 31.9067 150.195 32.0158 150.206 32.1244C150.214 32.2004 150.238 32.2738 150.277 32.3397C150.314 32.396 150.368 32.4387 150.431 32.4613C150.521 32.49 150.614 32.5028 150.708 32.4993H151.611C151.749 32.5033 151.886 32.4764 152.012 32.4208C152.117 32.3726 152.211 32.3027 152.286 32.2156C152.358 32.1339 152.414 32.0393 152.451 31.9369C152.485 31.8382 152.509 31.7364 152.522 31.6329H152.712C152.692 31.8103 152.672 31.985 152.654 32.1548C152.636 32.3245 152.621 32.4942 152.606 32.6614H148.701V32.4942C148.796 32.4973 148.891 32.4845 148.982 32.4562C149.047 32.4343 149.102 32.3915 149.14 32.3346C149.179 32.2692 149.204 32.1955 149.211 32.1193C149.224 32.0109 149.23 31.9017 149.229 31.7925V27.8634C149.23 27.7533 149.224 27.6433 149.211 27.534C149.205 27.4552 149.181 27.3789 149.14 27.3111C149.102 27.2543 149.047 27.2115 148.982 27.1895C148.891 27.1613 148.796 27.1484 148.701 27.1515V26.9869L152.614 27.0147ZM157.668 27.0147C157.855 27.0154 158.042 27.0323 158.226 27.0654C158.412 27.0983 158.593 27.1545 158.764 27.2326C158.815 27.2503 158.876 27.268 158.949 27.2858C159.017 27.3051 159.087 27.3137 159.158 27.3111C159.221 27.3096 159.282 27.2843 159.328 27.2402C159.354 27.2096 159.375 27.1737 159.387 27.1349C159.399 27.0961 159.403 27.0552 159.399 27.0147H159.599V28.5575H159.399C159.399 28.4556 159.39 28.3539 159.373 28.2535C159.356 28.1484 159.324 28.0461 159.279 27.9495C159.227 27.844 159.159 27.7467 159.079 27.6607C158.976 27.5593 158.859 27.4739 158.731 27.4074C158.572 27.3246 158.401 27.2657 158.224 27.2326C158.044 27.1996 157.861 27.1827 157.678 27.1819C157.499 27.1772 157.32 27.2082 157.153 27.2731C157.019 27.3302 156.899 27.4168 156.803 27.5265C156.713 27.6249 156.645 27.7415 156.605 27.8684C156.564 27.9954 156.544 28.1278 156.544 28.2611C156.545 28.3562 156.565 28.4502 156.604 28.5373C156.642 28.6244 156.698 28.7028 156.767 28.7677C156.937 28.9291 157.13 29.0633 157.341 29.1655C157.589 29.2891 157.843 29.3998 158.102 29.4973C158.361 29.5991 158.616 29.7141 158.863 29.8419C159.093 29.9461 159.29 30.1118 159.432 30.3207C159.561 30.5233 159.628 30.7593 159.624 30.9996C159.627 31.2355 159.575 31.4688 159.472 31.681C159.373 31.8766 159.234 32.0492 159.064 32.1877C158.884 32.3354 158.679 32.4503 158.46 32.5272C158.226 32.6081 157.979 32.6484 157.732 32.6462C157.543 32.6464 157.354 32.6311 157.168 32.6006C156.983 32.5703 156.803 32.5158 156.633 32.4385C156.573 32.4128 156.511 32.3916 156.448 32.3752C156.38 32.3566 156.31 32.3489 156.24 32.3524C156.174 32.3537 156.111 32.3789 156.062 32.4233C156.035 32.4533 156.014 32.4887 156.002 32.5271C155.989 32.5654 155.984 32.606 155.988 32.6462H155.803V31.1263H155.988C155.988 31.2248 155.997 31.3231 156.014 31.4201C156.03 31.5266 156.063 31.6299 156.11 31.7267C156.162 31.8347 156.231 31.9332 156.316 32.018C156.417 32.1218 156.535 32.2075 156.666 32.2713C156.826 32.3539 156.997 32.4128 157.173 32.4461C157.353 32.4791 157.536 32.496 157.719 32.4968C157.898 32.501 158.075 32.4691 158.242 32.4031C158.374 32.3502 158.495 32.2699 158.594 32.1674C158.686 32.0707 158.754 31.9547 158.795 31.828C158.837 31.7015 158.859 31.5688 158.858 31.4353C158.857 31.3397 158.836 31.2454 158.797 31.1583C158.757 31.0711 158.701 30.993 158.63 30.9287C158.459 30.7684 158.266 30.6336 158.056 30.5284C157.809 30.4006 157.555 30.2872 157.295 30.189C157.021 30.0851 156.765 29.9736 156.534 29.8571C156.309 29.7461 156.116 29.5795 155.973 29.3732C155.842 29.1697 155.774 28.9314 155.78 28.6892C155.778 28.4561 155.829 28.2255 155.93 28.0154C156.029 27.8153 156.167 27.6371 156.336 27.491C156.512 27.3406 156.715 27.2246 156.935 27.149C157.163 27.0516 157.407 26.9942 157.655 26.9793L157.668 27.0147ZM167.818 27.0324C167.833 27.2013 167.851 27.3702 167.871 27.5391C167.891 27.708 167.909 27.8769 167.924 28.0458H167.734C167.72 27.9419 167.695 27.84 167.658 27.7418C167.62 27.6392 167.563 27.5447 167.49 27.4631C167.413 27.3765 167.319 27.3067 167.214 27.2579C167.088 27.202 166.951 27.1752 166.813 27.1794H166.305C166.211 27.1761 166.117 27.1889 166.026 27.2174C165.994 27.2266 165.963 27.2424 165.936 27.2637C165.91 27.285 165.888 27.3115 165.872 27.3415C165.835 27.4118 165.812 27.4882 165.803 27.567C165.792 27.6764 165.787 27.7863 165.788 27.8963V31.7824C165.787 31.8915 165.792 32.0006 165.803 32.1092C165.812 32.1862 165.835 32.261 165.872 32.3296C165.906 32.3888 165.961 32.4331 166.026 32.4537C166.117 32.4822 166.211 32.495 166.305 32.4917V32.6589H164.309V32.4917C164.403 32.495 164.497 32.4822 164.588 32.4537C164.653 32.4325 164.708 32.3883 164.742 32.3296C164.779 32.2612 164.801 32.1863 164.808 32.1092C164.822 32.0008 164.828 31.8916 164.826 31.7824V27.8963C164.828 27.7863 164.822 27.6762 164.808 27.567C164.802 27.4882 164.779 27.4115 164.742 27.3415C164.708 27.2821 164.653 27.2378 164.588 27.2174C164.497 27.1889 164.403 27.1761 164.309 27.1794H163.781C163.643 27.1754 163.506 27.2023 163.38 27.2579C163.275 27.3067 163.18 27.3765 163.103 27.4631C163.032 27.5449 162.977 27.6395 162.941 27.7418C162.906 27.8401 162.882 27.9421 162.87 28.0458H162.677C162.695 27.8735 162.712 27.7012 162.733 27.5391C162.753 27.377 162.771 27.1946 162.786 27.0324H167.818ZM178.632 32.4968C178.77 32.5002 178.907 32.4725 179.033 32.4157C179.138 32.367 179.232 32.2981 179.31 32.2131C179.381 32.1304 179.436 32.035 179.472 31.9319C179.508 31.8337 179.532 31.7316 179.543 31.6278H179.736L179.627 32.6614H175.724V32.4968C175.819 32.5001 175.913 32.4872 176.004 32.4588C176.069 32.4369 176.125 32.3942 176.163 32.3372C176.202 32.2696 176.227 32.1945 176.234 32.1168C176.245 32.0074 176.251 31.8974 176.25 31.7874V27.8634C176.251 27.7551 176.246 27.6468 176.234 27.5391C176.226 27.4608 176.202 27.385 176.163 27.3162C176.126 27.2578 176.069 27.214 176.004 27.192C175.913 27.1636 175.819 27.1507 175.724 27.154V26.9869H177.739V27.154C177.644 27.1508 177.549 27.1636 177.457 27.192C177.392 27.214 177.337 27.2578 177.3 27.3162C177.259 27.3839 177.235 27.4603 177.229 27.5391C177.216 27.6467 177.21 27.755 177.211 27.8634V31.7596C177.21 31.8696 177.216 31.9797 177.229 32.0889C177.234 32.1671 177.259 32.2427 177.3 32.3093C177.338 32.3662 177.393 32.4089 177.457 32.4309C177.549 32.4593 177.644 32.4722 177.739 32.4689L178.632 32.4968ZM184.793 32.4968V32.6614H182.786V32.4968C182.88 32.5003 182.973 32.4874 183.063 32.4588C183.126 32.4361 183.18 32.3935 183.217 32.3372C183.257 32.2696 183.281 32.1945 183.288 32.1168C183.299 32.0074 183.305 31.8974 183.304 31.7874V27.8634C183.305 27.7551 183.3 27.6468 183.288 27.5391C183.28 27.4608 183.256 27.385 183.217 27.3162C183.181 27.2586 183.127 27.2148 183.063 27.192C182.973 27.1634 182.88 27.1505 182.786 27.154V26.9869H184.793V27.154C184.698 27.151 184.603 27.1638 184.512 27.192C184.446 27.214 184.391 27.2578 184.354 27.3162C184.315 27.3845 184.291 27.4606 184.283 27.5391C184.27 27.6467 184.264 27.755 184.265 27.8634V31.7596C184.264 31.8696 184.27 31.9797 184.283 32.0889C184.29 32.1669 184.314 32.2423 184.354 32.3093C184.392 32.3662 184.447 32.4089 184.512 32.4309C184.599 32.4552 184.69 32.4655 184.781 32.4613L184.793 32.4968ZM189.741 27.0147C189.928 27.0155 190.113 27.0324 190.297 27.0654C190.482 27.0983 190.663 27.1545 190.835 27.2326C190.886 27.2503 190.946 27.268 191.02 27.2858C191.088 27.3051 191.158 27.3137 191.228 27.3111C191.293 27.3102 191.354 27.2849 191.401 27.2402C191.427 27.2092 191.447 27.1733 191.459 27.1346C191.471 27.0959 191.476 27.0551 191.472 27.0147H191.672V28.5575H191.472C191.471 28.4557 191.462 28.3541 191.446 28.2535C191.428 28.1483 191.396 28.046 191.35 27.9495C191.298 27.844 191.23 27.7467 191.149 27.6607C191.047 27.5587 190.93 27.4732 190.802 27.4074C190.642 27.3242 190.471 27.2653 190.294 27.2326C190.115 27.1996 189.933 27.1827 189.751 27.1819C189.571 27.1772 189.392 27.2082 189.224 27.2731C189.089 27.3302 188.97 27.4168 188.873 27.5265C188.784 27.625 188.718 27.7417 188.678 27.8684C188.635 27.995 188.614 28.1276 188.615 28.2611C188.616 28.3564 188.637 28.4505 188.675 28.5375C188.714 28.6246 188.77 28.7029 188.84 28.7677C189.008 28.9297 189.201 29.0639 189.411 29.1655C189.645 29.282 189.893 29.3935 190.173 29.4973C190.432 29.5991 190.686 29.7141 190.934 29.8419C191.164 29.9454 191.361 30.1113 191.502 30.3207C191.633 30.5228 191.7 30.7592 191.695 30.9996C191.698 31.2352 191.647 31.4683 191.545 31.681C191.444 31.8762 191.304 32.0486 191.134 32.1877C190.955 32.3359 190.75 32.4509 190.53 32.5272C190.296 32.6083 190.05 32.6486 189.802 32.6462C189.614 32.6465 189.427 32.6312 189.241 32.6006C189.056 32.5703 188.875 32.5158 188.703 32.4385C188.644 32.4127 188.583 32.3916 188.521 32.3752C188.452 32.3567 188.381 32.3489 188.31 32.3524C188.245 32.3541 188.183 32.3793 188.135 32.4233C188.107 32.4528 188.086 32.488 188.072 32.5264C188.059 32.5649 188.055 32.6058 188.059 32.6462H187.876V31.1263H188.059C188.059 31.2248 188.067 31.3231 188.084 31.4201C188.102 31.5263 188.134 31.6294 188.181 31.7267C188.234 31.8336 188.303 31.9318 188.386 32.018C188.488 32.1219 188.608 32.2075 188.739 32.2713C188.902 32.3554 189.078 32.4144 189.259 32.4461C189.438 32.479 189.62 32.496 189.802 32.4968C189.982 32.5012 190.16 32.4693 190.327 32.4031C190.459 32.3487 190.579 32.2686 190.68 32.1674C190.771 32.0701 190.839 31.9543 190.88 31.828C190.922 31.7012 190.943 31.5687 190.944 31.4353C190.942 31.3396 190.921 31.2452 190.881 31.1581C190.841 31.0709 190.784 30.9928 190.713 30.9287C190.543 30.7678 190.349 30.633 190.14 30.5284C189.893 30.4001 189.639 30.2867 189.378 30.189C189.104 30.0851 188.848 29.9736 188.617 29.8571C188.392 29.7454 188.2 29.579 188.056 29.3732C187.926 29.1691 187.859 28.9312 187.863 28.6892C187.861 28.4558 187.913 28.225 188.016 28.0154C188.113 27.8149 188.25 27.6365 188.419 27.491C188.596 27.3406 188.799 27.2246 189.018 27.149C189.244 27.053 189.484 26.9956 189.728 26.9793L189.741 27.0147ZM199.891 27.0324L199.944 27.5391C199.964 27.7114 199.982 27.8836 200 28.0458H199.807C199.796 27.9415 199.77 27.8392 199.731 27.7418C199.693 27.6392 199.636 27.5447 199.564 27.4631C199.488 27.376 199.394 27.3061 199.29 27.2579C199.163 27.2023 199.026 27.1754 198.889 27.1794H198.368C198.274 27.1763 198.18 27.1891 198.089 27.2174C198.024 27.2378 197.969 27.2821 197.935 27.3415C197.898 27.4115 197.875 27.4882 197.869 27.567C197.855 27.6762 197.849 27.7863 197.851 27.8963V31.7824C197.849 31.8916 197.855 32.0008 197.869 32.1092C197.876 32.1863 197.898 32.2612 197.935 32.3296C197.969 32.3883 198.024 32.4325 198.089 32.4537C198.18 32.482 198.274 32.4948 198.368 32.4917V32.6589H196.371V32.4917C196.466 32.495 196.56 32.4822 196.651 32.4537C196.716 32.4331 196.771 32.3888 196.805 32.3296C196.843 32.2614 196.866 32.1865 196.874 32.1092C196.885 32.0006 196.89 31.8915 196.889 31.7824V27.8963C196.89 27.7863 196.885 27.6764 196.874 27.567C196.866 27.488 196.843 27.4113 196.805 27.3415C196.789 27.3115 196.767 27.285 196.741 27.2637C196.714 27.2424 196.683 27.2266 196.651 27.2174C196.56 27.1889 196.466 27.1761 196.371 27.1794H195.846C195.708 27.1752 195.57 27.2021 195.443 27.2579C195.338 27.3067 195.245 27.3766 195.169 27.4631C195.096 27.5443 195.041 27.639 195.006 27.7418C194.97 27.8398 194.946 27.9419 194.935 28.0458H194.742C194.758 27.8769 194.775 27.708 194.796 27.5391C194.816 27.3668 194.834 27.1946 194.852 27.0324H199.891Z" fill="url(#paint0_linear_314_1449)"/>
<path id="Vector_2" d="M27.6808 32.9502L28.8785 34.1764C25.0404 37.9103 19.8934 40 14.5344 40C9.17542 40 4.02837 37.9103 0.190307 34.1764L1.38798 32.9502C4.73091 36.2145 9.17596 38.1121 13.8493 38.2702V34.4019C10.1404 34.2625 6.62988 32.6935 4.05525 30.0245C1.48062 27.3555 0.0422337 23.7942 0.0422337 20.0887C0.0422337 16.3832 1.48062 12.8219 4.05525 10.1529C6.62988 7.48392 10.1404 5.91495 13.8493 5.77559V1.72231C9.08971 1.88156 4.57029 3.84765 1.2129 7.21956L0 6.00863C3.85435 2.16132 9.08152 0 14.5318 0C19.9822 0 25.2094 2.16132 29.0637 6.00863L27.8508 7.21956C24.5778 3.95126 20.2078 2.00987 15.5849 1.77043V5.82371C18.1004 6.01467 20.5218 6.86032 22.608 8.27642C24.6942 9.69252 26.3724 11.6296 27.4753 13.8948L25.93 14.6396C24.6862 12.0569 22.5984 9.97434 20.0104 8.73493C17.4224 7.49552 14.4888 7.17324 11.6928 7.82122C8.8968 8.46919 6.40532 10.0488 4.62887 12.2996C2.85242 14.5505 1.89699 17.3384 1.92 20.204C1.94301 23.0695 2.94309 25.8418 4.75546 28.0639C6.56783 30.2861 9.08435 31.8255 11.8904 32.4287C14.6964 33.0318 17.6245 32.6626 20.1922 31.382C22.76 30.1013 24.8141 27.9855 26.0162 25.3833L27.5742 26.1028C26.4957 28.4245 24.8158 30.4167 22.7081 31.8734C20.6003 33.3302 18.1413 34.1987 15.5849 34.3892V38.2499C20.1281 38.0101 24.4281 36.126 27.6808 32.9502Z" fill="url(#paint1_linear_314_1449)"/>
</g>
<defs>
<linearGradient id="paint0_linear_314_1449" x1="1.25095" y1="21.0539" x2="217.747" y2="21.0539" gradientUnits="userSpaceOnUse">
<stop offset="0.08" stop-color="#FFFF80"/>
<stop offset="0.19" stop-color="#806000"/>
<stop offset="0.68" stop-color="#D4AF37"/>
<stop offset="1" stop-color="#FFC000"/>
</linearGradient>
<linearGradient id="paint1_linear_314_1449" x1="-9.1525" y1="-2.23723" x2="40.4316" y2="44.4637" gradientUnits="userSpaceOnUse">
<stop stop-color="#FFFF80"/>
<stop offset="0.25" stop-color="#806000"/>
<stop offset="0.68" stop-color="#D4AF37"/>
<stop offset="1" stop-color="#FFC000"/>
</linearGradient>
</defs>
</svg>
