<svg id="eYaLBNIxodl1" xmlns="http://www.w3.org/2000/svg" xmlns:xlink="http://www.w3.org/1999/xlink" viewBox="0 0 4000 2000" shape-rendering="geometricPrecision" text-rendering="geometricPrecision"><g transform="translate(-921.88808-294.213751)"><g id="eYaLBNIxodl3" transform="translate(.000004 0.000002)"><g><g id="eYaLBNIxodl5"><g transform="translate(.000001 0.000001)"><g><g><g><path d="M1972.8,916c-81.5-123.7-173.9-247.9-176.7-245c32.4,212.3-70.9,331.3-70.9,331.3c137.6-10,251.8-54.1,247.6-86.3Z" fill="#e74200"/></g><g><g><g><g><path d="M1961.5,895.1c-2.5-2.9-5.3-5.7-8.2-8.6-6,37.4-30,71.7-101.4,49.8-31.8-9.8-49.4-.2-125.4,21.9-18.5,5.4-51.4,13.6-78.5,20.2-29.7,7.2-46.8,38.7-36.3,67.5c8.2,22.3,24.1,44.3,55,51.9c51.8,12.7,185.7-1.3,264.8-43.2c59.1-31.2,74.3-109.3,30-159.5Z" fill="#ff5100"/></g></g><g><g><path d="M1685.1,973.2c.2,0,.3,0,.5-.1c9.7-5,26.6-9.6,44.5-14.6c13.8-3.8,28.1-7.8,39.4-12c25.8-9.6,52.4-12.6,62.9-12.7.1,0,.3,0,.4,0c10.9,0,35.2,7.6,35.4,7.7h.1c.9.2,22.7,4.5,36.7,1.8.6-.1,1-.7.9-1.3s-.7-1-1.3-.9c-13.2,2.6-34.6-1.5-35.8-1.7-1.7-.5-25.6-7.9-36.4-7.8-10.6.2-37.5,3.1-63.6,12.9-11.2,4.2-25.4,8.1-39.2,11.9-18,5-35,9.7-44.9,14.7-.5.3-.7.9-.5,1.5.1.4.5.6.9.6Z" fill="#050505"/></g></g><g><g><path d="M1981.3,957.4c.1,0,.2,0,.3-.1.6-.2.9-.8.7-1.4-4.9-14.8-17.3-16-17.8-16.1-.6,0-1.1.4-1.2,1s.4,1.1,1,1.2c.5,0,11.5,1.2,16,14.6.1.5.5.8,1,.8Z" fill="#050505"/></g></g><g><g><path d="M1978.2,967.4c0,0,.1,0,.1,0c.6-.1,1-.6,1-1.2-1.8-15.5-13.7-19.2-14.2-19.4-.6-.2-1.2.2-1.3.7-.2.6.2,1.2.7,1.3s11.1,3.6,12.6,17.5c.1.7.6,1.1,1.1,1.1Z" fill="#050505"/></g></g></g><g><path d="M1828.6,982.5c-92.6-35.7-33.7-309.4-33.7-309.4C1655.7,813,1569,999.2,1617.8,1053.5c134.3-62.1,210.8-71,210.8-71Z" fill="#ff5100"/></g><g><path d="M1717.1,764.5l-1.5-1.1c34.8-47.8,75.7-87.6,76.1-88l2.6-.4c-.4.4-42.5,41.8-77.2,89.5Z" fill="#050505"/></g><path d="M1785.1,918.9c-6.6-27.1-9-62.2-7.2-104.5c2.7-61.9,14.4-123.6,17.5-139.5h-1.8c-3.8,19.3-14.8,80.6-17.4,139.4-1.8,42.4.6,77.7,7.3,104.9c8.4,34.2,23.4,55.7,44.8,64l.6-1.6c-20.9-7.9-35.6-29-43.8-62.7Z" fill="#050505"/></g></g></g></g><path d="M1947.2,913.3c1.5-28.7-6.7-45.6-6.7-45.6c24.4,28.9,28.4,39.6,28.4,40.6-11.2,9.5-21.7,5-21.7,5Z" fill="#fdc685"/></g></g></g><g><path d="M1738.2,684.7c6.6,1.4,9.3-.6,9.3-.6c88.8-6.5,119.6-13.3,119.6-13.3-45.9-5.5-60.6,1.2-60.6,1.2-91.9,6.4-69.9,7.6-69.9,7.6l1.6,5.1Z" fill="#ffd234"/></g><g><path d="M1738.2,675.8c.4-3.9.6-10.2.6-10.2c70.9-1.3,145.3,5.3,145.3,5.3l-143.4,7.7-2.5-2.8Z" fill="#ffd234"/></g><g><path d="M1743.9,679.7l-.2-2.1c14.2-1.2,56.7-3.8,57.1-3.8l.1,1.4c-.4.1-42.8,3.4-57,4.5Z" fill="#e74200"/></g><g id="eYaLBNIxodl37" transform="translate(0 0.000002)"><g><g><path d="M1465.6,739.4c18.1-108.9,165.8-201.3,145.6-243.8s-38.3-125.4-48.9-159.4c-15.9-31.9-44.6,10.6-49.9,59.5-38.3-19.1-47.8,27.6-56.3,58.4-39.3-22.3-60.5,15.9-58.4,38.3-38.3,2.1-24.5,64.8-24.5,68-32.9,11.7-20.2,60.6-20.2,60.6-16.6-.2,6.4,78.7,6.4,78.7c48.9,63.7,106.2,39.7,106.2,39.7Z" fill="#f5f5fd"/></g><g><path d="M1439.2,744.9c-2.7,0-5.5-.1-8.5-.4-12-1.2-23.7-4.8-34.6-10.8-13.7-7.5-26.3-18.7-37.6-33.4l-.1-.2-.1-.2c0-.2-4.8-16.5-8.4-34.1-4.9-23.9-5.3-38.6-1.4-43.7.9-1.1,1.9-1.8,3.1-2.1-.9-3.9-3.3-16.6-1.5-29.7l2.1.3c-2.1,15,1.7,29.9,1.8,30l.4,1.4h-1.4c-1.1,0-2,.4-2.7,1.4-2.4,3.2-4.1,13,1.8,42c3.4,16.5,7.7,31.9,8.3,33.8c25,32.5,52.2,41.4,70.6,43.2c20,1.9,34.1-3.9,34.3-3.9l.8,2c-.6.1-11,4.4-26.9,4.4Z" fill="#050505"/></g><g><path d="M1376.7,507.4l-1.9-.9c4.4-9.1,11.8-14.2,21.8-15.1-.6-10.6,3.6-26.1,14.8-36.3l1.4,1.6c-10.5,9.6-15,25.2-14,35.6l.1,1.1-1.1.1c-9.8.5-16.9,5.2-21.1,13.9Z" fill="#050505"/></g><g><path d="M1513.5,395.8l-2.1-.2c2.3-21.3,9.2-42.4,18.3-56.5c6.5-10.1,13.7-15.4,20.1-15c5.3.3,9.8,4.2,13.5,11.6l-1.9,1c-3.3-6.7-7.3-10.2-11.8-10.4-5.6-.3-12.1,4.7-18.2,14.1-8.9,13.7-15.7,34.4-17.9,55.4Z" fill="#050505"/></g><g><path d="M1545.6,602.5l-1.6-1.4c5.4-6.3,10.8-12.5,16.1-18.5c16.9-19.2,31.4-35.8,41-50.6c10.4-16,13.3-27.4,9.2-36.1l1.9-.9c9.6,20.3-16.9,50.6-50.5,89-5.3,6-10.7,12.2-16.1,18.5Z" fill="#050505"/></g><g><path d="M1424.8,582.8c-.5,0-.9-.4-.9-.9c0-11.6,2.1-19.3,6.4-22.9c2.9-2.4,5.7-1.9,5.8-1.9.5.1.8.6.7,1-.1.5-.6.8-1,.7-.1,0-2.1-.3-4.4,1.6-2.6,2.2-5.8,7.8-5.7,21.5c0,.5-.4.9-.9.9v0Z" fill="#050505"/></g><g><path d="M1503.7,482.2c-.1,0-.2,0-.3,0-.5-.2-.7-.7-.6-1.1.3-1,8.6-25.6,17.3-28c1.8-.5,3.5,0,5.1,1.3c1-.6,3-5,4.6-8.2c3.5-7.3,7.1-14.9,11-15c0,0,0,0,0,0c1.5,0,2.8,1.1,3.9,3.2.2.4.1,1-.4,1.2-.4.2-1,.1-1.2-.4-.8-1.5-1.6-2.3-2.3-2.2-2.8,0-6.8,8.4-9.4,14-2.9,6.1-4.4,9-6,9.3-.5.1-.9-.1-1.3-.4-1.1-1-2.3-1.3-3.5-1-6.5,1.7-13.8,19.9-16.1,26.8-.1.2-.5.5-.8.5Z" fill="#050505"/></g><g><path d="M1417.6,509c-.1,0-.1,0,0,0-.5,0-.9-.4-.9-.9.6-18.7,7.8-25,10.9-26.8c3-1.8,6.3-2.1,8.8-.8.4.2.6.8.4,1.2s-.8.6-1.2.4c-2-1-4.6-.7-7.1.7-2.8,1.7-9.5,7.5-10.1,25.4c0,.4-.4.8-.8.8Z" fill="#050505"/></g></g><g><path d="M1374.8,655.3c-.5,0-.9-.4-.9-.9s.1-11.1,4.5-14.5c1.3-1,2.9-1.3,4.7-.9.5.1.8.6.6,1.1-.1.5-.6.8-1.1.6-1.2-.3-2.3-.1-3.2.5-3.1,2.4-3.8,10.3-3.8,13.1.1.6-.3,1-.8,1Z" fill="#050505"/></g></g><g><path d="M1246.6,793.4c-31.2,14.9-49.5,16.3-49.5,16.3-90.1,43.2-135.2,65.2-155.1,65.2-20,0-29.9-3.5-30.6,9.9c10.6-5.7,16.3,2.1.7,9.2s-23.4,7.8-27.6,2.1c-7.1,11.3,13.5,9.2,17.7,10.6c2.1,5.7,15.6,0,15.6,0c8.5,2.8,23.4-14.2,30.1-17.7c30.8-11.3,113.9-53.2,134.4-61s28.8-11.3,62.1-12.3c33.3-1.1,51.7-16.7,51.7-16.7-23.3-2.7-49.5-5.6-49.5-5.6Z" fill="#ff5100"/></g><g><path d="M1306.8,804c-31.2,14.9-49.5,16.3-49.5,16.3-90.1,43.2-135.2,65.2-155.1,65.2-20,0-29.9-3.5-30.6,9.9c10.6-5.7,16.3,2.1.7,9.2s-23.4,7.8-27.6,2.1c-7.1,11.3,13.5,9.2,17.7,10.6c2.1,5.7,15.6,0,15.6,0c8.5,2.8,23.4-14.2,30.1-17.7c30.8-11.3,113.9-53.2,134.4-61s28.8-11.3,62.1-12.3c33.3-1.1,51.7-16.7,51.7-16.7-23.2-2.7-49.5-5.6-49.5-5.6Z" fill="#ff5100"/></g><g><path d="M1738.7,665.6c-30.8-22.3-61.6-15.5-96.7,14.1-35.1,29.5-109.5,54.3-169,43.5s-148.8-22.6-250.8,21.6c-113.7-9-180.9,4.7-172.3,21.2-8.4,39.9,9.3,31.4,24.9,31.4c13.5,22.3,26.2,21.3,35.8,15.9c18.1,9.6,46.5-5.3,46.5-5.3c23.6,2.1,50.2-12.8,50.2-12.8c155.1,38.3,209.3,2.1,248.7-23.4c39.3-25.5,90.3-11.8,146.6-41s65.6-33,70.3-31.4c45.2,9,74.4-15.4,74.4-15.4-6.2-12.1-.3-13.1-8.6-18.4Z" fill="#fff"/></g><g><path d="M1326,813c-34.2,0-73.6-5.5-118.8-16.7l.5-2.1c153.6,37.9,207.6,2.9,247-22.7l.8-.5l1.2,1.8-.8.5c-19.3,12.5-43.2,28.1-81.2,35.4-15.1,2.8-31.2,4.3-48.7,4.3Z" fill="#050505"/></g><g><path d="M1099.7,817.6c-1.9,0-3.8-.3-5.7-.9-6.9-2.1-13.5-8.3-19.6-18.3-2.1,0-4.4.2-6.5.4-7,.6-13.6,1.1-17.6-3.4-4.1-4.6-4.5-14-1.3-29.3-1-2.1-.9-4.2.1-6.2c3.9-7.4,21.8-13.2,50.4-16.4l.2,2.1c-27.5,3.1-45.3,8.7-48.8,15.3-.8,1.5-.8,3,0,4.5l.2.3-.1.4c-3.1,14.6-2.8,23.7.8,27.8c3.3,3.7,9.4,3.2,15.8,2.7c2.4-.2,4.8-.4,7.3-.4h.6l.3.5c10.5,17.5,21.8,22.5,34.4,15.6l1,1.9c-4,2.3-7.8,3.4-11.5,3.4Z" fill="#050505"/></g><g><path d="M1503.2,726.8c-10.6,0-20.7-.9-30.3-2.6l.4-2.1c18.4,3.3,38.9,3.4,60.8.3l.3,2.1c-10.8,1.6-21.2,2.3-31.2,2.3Z" fill="#050505"/></g><g><path d="M1642.7,680.5l-1.4-1.6c18.3-15.4,34.8-24.1,50.5-26.7c16.5-2.7,32.1,1.4,47.6,12.6l-1.2,1.7c-28.9-20.9-59.3-16.5-95.5,14Z" fill="#050505"/></g><g><circle r="3.4" transform="translate(1711.6 674.3)" fill="#050505"/></g><g id="eYaLBNIxodl73" transform="translate(.000002 0.000001)"><g transform="translate(0 0.000002)"><g transform="translate(0 0.000001)"><g transform="translate(.000005 0.000008)"><path d="M1418.1,723.5c-123.6-107.8-104.4-235.3-182-227.9s-298.9-112.1-254.1-46.5s23.3,90,78.7,119.8c-4.1,29.8,16,49.6,39.4,56.7-23.4,42.1,34.6,49.5,57.2,50.6c4.5,41.5,84.2,56,84.2,56-14.9,21.6,61.3,13,76.9,13.5c52.7-4.6,99.7-22.2,99.7-22.2Z" fill="#fff"/></g><g><path d="M1060.2,569.8c-33.2-17.9-39-33.7-47.8-57.7-5.9-16-13.1-35.9-31.2-62.4-5.9-8.6-7.5-14.5-4.9-18c4.3-5.8,19.2-4.2,50.1,5.4l-.6,2c-18.3-5.7-43.1-12.5-47.7-6.2-2,2.7-.3,7.9,5,15.6c18.3,26.7,25.6,46.8,31.5,62.9c8.6,23.5,14.3,39.1,46.8,56.6l-1.2,1.8Z" fill="#050505"/></g><g><path d="M1417.4,724.3c-26.9-23.5-49.4-49.8-68.8-80.6-16.7-26.5-28.2-51.7-38.4-74-10.4-22.7-19.3-42.2-30.4-55.3-12-14-25.4-19.5-43.6-17.8l-.2-2.1c18.7-1.8,33.1,4.1,45.4,18.5c11.3,13.2,20.3,32.9,30.7,55.8c20.7,45.1,46.4,101.3,106.6,153.9l-1.3,1.6Z" fill="#050505"/></g><g><path d="M1173.2,574.2c0,0-.1,0,0,0-1.5-.1-35.2-3-41.3-15.5-1.5-3.1-1.2-6.6.9-10.3-6.8-1.3-37.6-7.9-40.5-18.2-.8-2.7.3-5.3,3.1-7.9.4-.3.9-.3,1.3.1.3.4.3.9-.1,1.3-2.3,2.1-3.1,4.1-2.6,6.1c2.5,8.5,30,15.3,40.4,17.2l1.3.2-.7,1.1c-2.4,3.6-2.9,6.7-1.5,9.6c5.6,11.6,39.4,14.5,39.8,14.5.5,0,.9.5.8,1-.1.4-.5.8-.9.8Z" fill="#050505"/></g><g><path d="M1189.5,662c0,0,0,0,0,0-.7,0-16.4-.5-20.3-8.4-1.9-3.8-.8-8.6,3.3-14.2.3-.4.8-.5,1.2-.2s.5.8.2,1.2c-3.7,5.1-4.7,9.2-3.1,12.4c3.5,7,18.6,7.4,18.7,7.5.5,0,.9.4.9.9-.1.4-.5.8-.9.8Z" fill="#050505"/></g><g><path d="M1066.9,504.7c-.1,0-.2,0-.3,0-11.2-3.7-26.6-12.4-26.4-18.9.1-2.5,2.2-4.3,6.4-5.4.5-.1,1,.2,1.1.6.1.5-.2,1-.6,1.1-3.3.9-5,2.1-5.1,3.7-.2,4.9,13.4,13.3,25.2,17.2.5.2.7.7.6,1.1-.2.4-.5.6-.9.6Z" fill="#050505"/></g><g><path d="M1279.2,671.7c-.1,0-.1,0-.2,0-.2,0-5-1.2-9.5-4.3-6-4.3-8.5-10.2-7.1-17.1.1-.5.6-.8,1-.7.5.1.8.6.7,1-1.2,6.2.9,11.4,6.4,15.2c4.2,3,8.8,4.1,8.9,4.1.5.1.8.6.7,1.1-.1.4-.4.7-.9.7Z" fill="#050505"/></g></g><g><path d="M1241.2,733.3c-.2,0-20.3-3.8-40.6-12.5-12-5.2-21.8-11.1-29-17.5-9.2-8.1-14.3-17.2-15.4-26.9l2.1-.2c2.2,20.9,24.7,34.8,43.1,42.7c20.1,8.7,40,12.4,40.2,12.4l-.4,2Z" fill="#050505"/></g></g></g><g><g><path d="M1155.7,880.1l-.9-1.9c9.6-4.5,18.3-8.6,26.3-12.4c52.5-24.7,74.2-34.9,88.6-37c16.6-2.4,22.6-2.8,32.5-3.4s19.2-2,19.3-2l.3,2.1c-.1,0-9.5,1.4-19.5,2-9.9.6-15.8.9-32.3,3.3-14.1,2-35.8,12.2-88,36.9-8,3.8-16.7,7.9-26.3,12.4Z" fill="#050505"/></g></g><g><g><path d="M1101,886.6c-1.6,0-3.3-.1-5-.2l.2-2.1c12.7.9,21.1-1.8,32.4-6.2c11.6-4.5,43.5-18.4,49.3-21.1l.9,1.9c-5.7,2.7-37.8,16.7-49.4,21.1-10.2,4-18,6.6-28.4,6.6Z" fill="#050505"/></g></g><g><g><path d="M1035.3,900.2l-1.3-1.6c1.3-1,2.4-2,3.5-2.8c6.5-5.4,8.7-7.2,10.1-7.7c1.1-.4,41.1-17.8,48-21c6.3-2.9,31.1-14.6,31.4-14.8l.9,1.9c-.3.1-25.1,11.8-31.4,14.8-5.9,2.8-46.4,20.4-48.2,21.1-1.1.4-3.7,2.6-9.5,7.4-1.1.8-2.2,1.7-3.5,2.7Z" fill="#050505"/></g></g><g><g><path d="M1165.5,826.1l-.9-1.9c0,0,21.1-10.1,32.1-15.4l.2-.1h.2c7.6-.8,21.2-5,31.4-8.6l3.1.7c-10.3,3.6-26.3,9.1-34.1,10-11.2,5.3-32,15.3-32,15.3Z" fill="#050505"/></g></g><g><path d="M1087.2,785.2c-.3,0-.5-.1-.7-.4-.3-.4-.2-.9.2-1.2c8.6-6.5,32.9-7.1,34-7.1c0,0,0,0,0,0c.5,0,.9.4.9.9s-.4.9-.9.9c-.2,0-24.8.6-33,6.7-.1.2-.3.2-.5.2Z" fill="#050505"/></g><g><path d="M1127.8,801c-.2,0-.4-.1-.6-.2-.4-.3-.4-.9-.1-1.3l6.3-6.9l5.9-1.5c.5-.1,1,.2,1.1.6.1.5-.2,1-.6,1.1l-5.4,1.4-5.9,6.5c-.2.2-.4.3-.7.3Z" fill="#050505"/></g><g><path d="M1164.6,796.9c-.4,0-.8-.3-.9-.7-.1-.5.2-1,.6-1.1.1,0,10.3-2.8,25.4-15.3.4-.3.9-.3,1.2.1s.3.9-.1,1.2c-15.5,12.8-25.7,15.5-26.1,15.7c0,.1-.1.1-.1.1Z" fill="#050505"/></g></g>
<script><![CDATA[
!function(t,n){"object"==typeof exports&&"undefined"!=typeof module?module.exports=n():"function"==typeof define&&define.amd?define(n):((t="undefined"!=typeof globalThis?globalThis:t||self).__SVGATOR_PLAYER__=t.__SVGATOR_PLAYER__||{},t.__SVGATOR_PLAYER__["5c7f360c"]=n())}(this,(function(){"use strict";function t(t,n){var e=Object.keys(t);if(Object.getOwnPropertySymbols){var r=Object.getOwnPropertySymbols(t);n&&(r=r.filter((function(n){return Object.getOwnPropertyDescriptor(t,n).enumerable}))),e.push.apply(e,r)}return e}function n(n){for(var e=1;e<arguments.length;e++){var r=null!=arguments[e]?arguments[e]:{};e%2?t(Object(r),!0).forEach((function(t){o(n,t,r[t])})):Object.getOwnPropertyDescriptors?Object.defineProperties(n,Object.getOwnPropertyDescriptors(r)):t(Object(r)).forEach((function(t){Object.defineProperty(n,t,Object.getOwnPropertyDescriptor(r,t))}))}return n}function e(t){return(e="function"==typeof Symbol&&"symbol"==typeof Symbol.iterator?function(t){return typeof t}:function(t){return t&&"function"==typeof Symbol&&t.constructor===Symbol&&t!==Symbol.prototype?"symbol":typeof t})(t)}function r(t,n){if(!(t instanceof n))throw new TypeError("Cannot call a class as a function")}function i(t,n){for(var e=0;e<n.length;e++){var r=n[e];r.enumerable=r.enumerable||!1,r.configurable=!0,"value"in r&&(r.writable=!0),Object.defineProperty(t,r.key,r)}}function u(t,n,e){return n&&i(t.prototype,n),e&&i(t,e),t}function o(t,n,e){return n in t?Object.defineProperty(t,n,{value:e,enumerable:!0,configurable:!0,writable:!0}):t[n]=e,t}function a(t){return(a=Object.setPrototypeOf?Object.getPrototypeOf:function(t){return t.__proto__||Object.getPrototypeOf(t)})(t)}function l(t,n){return(l=Object.setPrototypeOf||function(t,n){return t.__proto__=n,t})(t,n)}function s(){if("undefined"==typeof Reflect||!Reflect.construct)return!1;if(Reflect.construct.sham)return!1;if("function"==typeof Proxy)return!0;try{return Boolean.prototype.valueOf.call(Reflect.construct(Boolean,[],(function(){}))),!0}catch(t){return!1}}function f(t,n,e){return(f=s()?Reflect.construct:function(t,n,e){var r=[null];r.push.apply(r,n);var i=new(Function.bind.apply(t,r));return e&&l(i,e.prototype),i}).apply(null,arguments)}function c(t,n){if(n&&("object"==typeof n||"function"==typeof n))return n;if(void 0!==n)throw new TypeError("Derived constructors may only return object or undefined");return function(t){if(void 0===t)throw new ReferenceError("this hasn't been initialised - super() hasn't been called");return t}(t)}function h(t,n,e){return(h="undefined"!=typeof Reflect&&Reflect.get?Reflect.get:function(t,n,e){var r=function(t,n){for(;!Object.prototype.hasOwnProperty.call(t,n)&&null!==(t=a(t)););return t}(t,n);if(r){var i=Object.getOwnPropertyDescriptor(r,n);return i.get?i.get.call(e):i.value}})(t,n,e||t)}function v(t){return function(t){if(Array.isArray(t))return y(t)}(t)||function(t){if("undefined"!=typeof Symbol&&null!=t[Symbol.iterator]||null!=t["@@iterator"])return Array.from(t)}(t)||function(t,n){if(!t)return;if("string"==typeof t)return y(t,n);var e=Object.prototype.toString.call(t).slice(8,-1);"Object"===e&&t.constructor&&(e=t.constructor.name);if("Map"===e||"Set"===e)return Array.from(t);if("Arguments"===e||/^(?:Ui|I)nt(?:8|16|32)(?:Clamped)?Array$/.test(e))return y(t,n)}(t)||function(){throw new TypeError("Invalid attempt to spread non-iterable instance.\nIn order to be iterable, non-array objects must have a [Symbol.iterator]() method.")}()}function y(t,n){(null==n||n>t.length)&&(n=t.length);for(var e=0,r=new Array(n);e<n;e++)r[e]=t[e];return r}Number.isInteger||(Number.isInteger=function(t){return"number"==typeof t&&isFinite(t)&&Math.floor(t)===t}),Number.EPSILON||(Number.EPSILON=2220446049250313e-31);var g=d(Math.pow(10,-6));function d(t){var n=arguments.length>1&&void 0!==arguments[1]?arguments[1]:6;if(Number.isInteger(t))return t;var e=Math.pow(10,n);return Math.round((+t+Number.EPSILON)*e)/e}function p(t,n){var e=arguments.length>2&&void 0!==arguments[2]?arguments[2]:g;return Math.abs(t-n)<e}var m=Math.PI/180;function b(t){return t}function w(t,n,e){var r=1-e;return 3*e*r*(t*r+n*e)+e*e*e}function x(){var t=arguments.length>0&&void 0!==arguments[0]?arguments[0]:0,n=arguments.length>1&&void 0!==arguments[1]?arguments[1]:0,e=arguments.length>2&&void 0!==arguments[2]?arguments[2]:1,r=arguments.length>3&&void 0!==arguments[3]?arguments[3]:1;return t<0||t>1||e<0||e>1?null:p(t,n)&&p(e,r)?b:function(i){if(i<=0)return t>0?i*n/t:0===n&&e>0?i*r/e:0;if(i>=1)return e<1?1+(i-1)*(r-1)/(e-1):1===e&&t<1?1+(i-1)*(n-1)/(t-1):1;for(var u,o=0,a=1;o<a;){var l=w(t,e,u=(o+a)/2);if(p(i,l))break;l<i?o=u:a=u}return w(n,r,u)}}function A(){return 1}function k(t){return 1===t?1:0}function _(){var t=arguments.length>0&&void 0!==arguments[0]?arguments[0]:1,n=arguments.length>1&&void 0!==arguments[1]?arguments[1]:0;if(1===t){if(0===n)return k;if(1===n)return A}var e=1/t;return function(t){return t>=1?1:(t+=n*e)-t%e}}var S=Math.sin,O=Math.cos,j=Math.acos,M=Math.asin,P=Math.tan,E=Math.atan2,I=Math.PI/180,R=180/Math.PI,F=Math.sqrt,N=function(){function t(){var n=arguments.length>0&&void 0!==arguments[0]?arguments[0]:1,e=arguments.length>1&&void 0!==arguments[1]?arguments[1]:0,i=arguments.length>2&&void 0!==arguments[2]?arguments[2]:0,u=arguments.length>3&&void 0!==arguments[3]?arguments[3]:1,o=arguments.length>4&&void 0!==arguments[4]?arguments[4]:0,a=arguments.length>5&&void 0!==arguments[5]?arguments[5]:0;r(this,t),this.m=[n,e,i,u,o,a],this.i=null,this.w=null,this.s=null}return u(t,[{key:"determinant",get:function(){var t=this.m;return t[0]*t[3]-t[1]*t[2]}},{key:"isIdentity",get:function(){if(null===this.i){var t=this.m;this.i=1===t[0]&&0===t[1]&&0===t[2]&&1===t[3]&&0===t[4]&&0===t[5]}return this.i}},{key:"point",value:function(t,n){var e=this.m;return{x:e[0]*t+e[2]*n+e[4],y:e[1]*t+e[3]*n+e[5]}}},{key:"translateSelf",value:function(){var t=arguments.length>0&&void 0!==arguments[0]?arguments[0]:0,n=arguments.length>1&&void 0!==arguments[1]?arguments[1]:0;if(!t&&!n)return this;var e=this.m;return e[4]+=e[0]*t+e[2]*n,e[5]+=e[1]*t+e[3]*n,this.w=this.s=this.i=null,this}},{key:"rotateSelf",value:function(){var t=arguments.length>0&&void 0!==arguments[0]?arguments[0]:0;if(t%=360){var n=S(t*=I),e=O(t),r=this.m,i=r[0],u=r[1];r[0]=i*e+r[2]*n,r[1]=u*e+r[3]*n,r[2]=r[2]*e-i*n,r[3]=r[3]*e-u*n,this.w=this.s=this.i=null}return this}},{key:"scaleSelf",value:function(){var t=arguments.length>0&&void 0!==arguments[0]?arguments[0]:1,n=arguments.length>1&&void 0!==arguments[1]?arguments[1]:1;if(1!==t||1!==n){var e=this.m;e[0]*=t,e[1]*=t,e[2]*=n,e[3]*=n,this.w=this.s=this.i=null}return this}},{key:"skewSelf",value:function(t,n){if(n%=360,(t%=360)||n){var e=this.m,r=e[0],i=e[1],u=e[2],o=e[3];t&&(t=P(t*I),e[2]+=r*t,e[3]+=i*t),n&&(n=P(n*I),e[0]+=u*n,e[1]+=o*n),this.w=this.s=this.i=null}return this}},{key:"resetSelf",value:function(){var t=arguments.length>0&&void 0!==arguments[0]?arguments[0]:1,n=arguments.length>1&&void 0!==arguments[1]?arguments[1]:0,e=arguments.length>2&&void 0!==arguments[2]?arguments[2]:0,r=arguments.length>3&&void 0!==arguments[3]?arguments[3]:1,i=arguments.length>4&&void 0!==arguments[4]?arguments[4]:0,u=arguments.length>5&&void 0!==arguments[5]?arguments[5]:0,o=this.m;return o[0]=t,o[1]=n,o[2]=e,o[3]=r,o[4]=i,o[5]=u,this.w=this.s=this.i=null,this}},{key:"recomposeSelf",value:function(){var t=arguments.length>0&&void 0!==arguments[0]?arguments[0]:null,n=arguments.length>1&&void 0!==arguments[1]?arguments[1]:null,e=arguments.length>2&&void 0!==arguments[2]?arguments[2]:null,r=arguments.length>3&&void 0!==arguments[3]?arguments[3]:null,i=arguments.length>4&&void 0!==arguments[4]?arguments[4]:null;return this.isIdentity||this.resetSelf(),t&&(t.x||t.y)&&this.translateSelf(t.x,t.y),n&&this.rotateSelf(n),e&&(e.x&&this.skewSelf(e.x,0),e.y&&this.skewSelf(0,e.y)),!r||1===r.x&&1===r.y||this.scaleSelf(r.x,r.y),i&&(i.x||i.y)&&this.translateSelf(i.x,i.y),this}},{key:"decompose",value:function(){var t=arguments.length>0&&void 0!==arguments[0]?arguments[0]:0,n=arguments.length>1&&void 0!==arguments[1]?arguments[1]:0,e=this.m,r=e[0]*e[0]+e[1]*e[1],i=[[e[0],e[1]],[e[2],e[3]]],u=F(r);if(0===u)return{origin:{x:d(e[4]),y:d(e[5])},translate:{x:d(t),y:d(n)},scale:{x:0,y:0},skew:{x:0,y:0},rotate:0};i[0][0]/=u,i[0][1]/=u;var o=e[0]*e[3]-e[1]*e[2]<0;o&&(u=-u);var a=i[0][0]*i[1][0]+i[0][1]*i[1][1];i[1][0]-=i[0][0]*a,i[1][1]-=i[0][1]*a;var l=F(i[1][0]*i[1][0]+i[1][1]*i[1][1]);if(0===l)return{origin:{x:d(e[4]),y:d(e[5])},translate:{x:d(t),y:d(n)},scale:{x:d(u),y:0},skew:{x:0,y:0},rotate:0};i[1][0]/=l,i[1][1]/=l,a/=l;var s=0;return i[1][1]<0?(s=j(i[1][1])*R,i[0][1]<0&&(s=360-s)):s=M(i[0][1])*R,o&&(s=-s),a=E(a,F(i[0][0]*i[0][0]+i[0][1]*i[0][1]))*R,o&&(a=-a),{origin:{x:d(e[4]),y:d(e[5])},translate:{x:d(t),y:d(n)},scale:{x:d(u),y:d(l)},skew:{x:d(a),y:0},rotate:d(s)}}},{key:"clone",value:function(){var t=this.m;return new this.constructor(t[0],t[1],t[2],t[3],t[4],t[5])}},{key:"toString",value:function(){var t=arguments.length>0&&void 0!==arguments[0]?arguments[0]:" ";if(null===this.s){var n=this.m.map((function(t){return d(t)}));1===n[0]&&0===n[1]&&0===n[2]&&1===n[3]?this.s="translate("+n[4]+t+n[5]+")":this.s="matrix("+n.join(t)+")"}return this.s}}],[{key:"create",value:function(t){return t?Array.isArray(t)?f(this,v(t)):t instanceof this?t.clone():(new this).recomposeSelf(t.origin,t.rotate,t.skew,t.scale,t.translate):new this}}]),t}();function T(t,n,e){return t>=.5?e:n}function q(t,n,e){return 0===t||n===e?n:t*(e-n)+n}function B(t,n,e){var r=q(t,n,e);return r<=0?0:r}function L(t,n,e){var r=q(t,n,e);return r<=0?0:r>=1?1:r}function C(t,n,e){return 0===t?n:1===t?e:{x:q(t,n.x,e.x),y:q(t,n.y,e.y)}}function D(t,n,e){var r=function(t,n,e){return Math.round(q(t,n,e))}(t,n,e);return r<=0?0:r>=255?255:r}function z(t,n,e){return 0===t?n:1===t?e:{r:D(t,n.r,e.r),g:D(t,n.g,e.g),b:D(t,n.b,e.b),a:q(t,null==n.a?1:n.a,null==e.a?1:e.a)}}function V(t,n){for(var e=[],r=0;r<t;r++)e.push(n);return e}function G(t,n){if(--n<=0)return t;var e=(t=Object.assign([],t)).length;do{for(var r=0;r<e;r++)t.push(t[r])}while(--n>0);return t}var Y,$=function(){function t(n){r(this,t),this.list=n,this.length=n.length}return u(t,[{key:"setAttribute",value:function(t,n){for(var e=this.list,r=0;r<this.length;r++)e[r].setAttribute(t,n)}},{key:"removeAttribute",value:function(t){for(var n=this.list,e=0;e<this.length;e++)n[e].removeAttribute(t)}},{key:"style",value:function(t,n){for(var e=this.list,r=0;r<this.length;r++)e[r].style[t]=n}}]),t}(),U=/-./g,Q=function(t,n){return n.toUpperCase()};function H(t){return"function"==typeof t?t:T}function J(t){return t?"function"==typeof t?t:Array.isArray(t)?function(t){var n=arguments.length>1&&void 0!==arguments[1]?arguments[1]:b;if(!Array.isArray(t))return n;switch(t.length){case 1:return _(t[0])||n;case 2:return _(t[0],t[1])||n;case 4:return x(t[0],t[1],t[2],t[3])||n}return n}(t,null):function(t,n){var e=arguments.length>2&&void 0!==arguments[2]?arguments[2]:b;switch(t){case"linear":return b;case"steps":return _(n.steps||1,n.jump||0)||e;case"bezier":case"cubic-bezier":return x(n.x1||0,n.y1||0,n.x2||0,n.y2||0)||e}return e}(t.type,t.value,null):null}function Z(t,n,e){var r=arguments.length>3&&void 0!==arguments[3]&&arguments[3],i=n.length-1;if(t<=n[0].t)return r?[0,0,n[0].v]:n[0].v;if(t>=n[i].t)return r?[i,1,n[i].v]:n[i].v;var u,o=n[0],a=null;for(u=1;u<=i;u++){if(!(t>n[u].t)){a=n[u];break}o=n[u]}return null==a?r?[i,1,n[i].v]:n[i].v:o.t===a.t?r?[u,1,a.v]:a.v:(t=(t-o.t)/(a.t-o.t),o.e&&(t=o.e(t)),r?[u,t,e(t,o.v,a.v)]:e(t,o.v,a.v))}function K(t,n){var e=arguments.length>2&&void 0!==arguments[2]?arguments[2]:null;return t&&t.length?"function"!=typeof n?null:("function"!=typeof e&&(e=null),function(r){var i=Z(r,t,n);return null!=i&&e&&(i=e(i)),i}):null}function W(t,n){return t.t-n.t}function X(t,n,r,i,u){var o,a="@"===r[0],l="#"===r[0],s=Y[r],f=T;switch(a?(o=r.substr(1),r=o.replace(U,Q)):l&&(r=r.substr(1)),e(s)){case"function":if(f=s(i,u,Z,J,r,a,n,t),l)return f;break;case"string":f=K(i,H(s));break;case"object":if((f=K(i,H(s.i),s.f))&&"function"==typeof s.u)return s.u(n,f,r,a,t)}return f?function(t,n,e){if(arguments.length>3&&void 0!==arguments[3]&&arguments[3])return t instanceof $?function(r){return t.style(n,e(r))}:function(r){return t.style[n]=e(r)};if(Array.isArray(n)){var r=n.length;return function(i){var u=e(i);if(null==u)for(var o=0;o<r;o++)t[o].removeAttribute(n);else for(var a=0;a<r;a++)t[a].setAttribute(n,u)}}return function(r){var i=e(r);null==i?t.removeAttribute(n):t.setAttribute(n,i)}}(n,r,f,a):null}function tt(t,n,r,i){if(!i||"object"!==e(i))return null;var u=null,o=null;return Array.isArray(i)?o=function(t){if(!t||!t.length)return null;for(var n=0;n<t.length;n++)t[n].e&&(t[n].e=J(t[n].e));return t.sort(W)}(i):(o=i.keys,u=i.data||null),o?X(t,n,r,o,u):null}function nt(t,n,e){if(!e)return null;var r=[];for(var i in e)if(e.hasOwnProperty(i)){var u=tt(t,n,i,e[i]);u&&r.push(u)}return r.length?r:null}function et(t,n){if(!n.settings.duration||n.settings.duration<0)return null;var e,r,i,u,o,a=function(t,n){if(!n)return null;var e=[];if(Array.isArray(n))for(var r=n.length,i=0;i<r;i++){var u=n[i];if(2===u.length){var o=null;if("string"==typeof u[0])o=t.getElementById(u[0]);else if(Array.isArray(u[0])){o=[];for(var a=0;a<u[0].length;a++)if("string"==typeof u[0][a]){var l=t.getElementById(u[0][a]);l&&o.push(l)}o=o.length?1===o.length?o[0]:new $(o):null}if(o){var s=nt(t,o,u[1]);s&&(e=e.concat(s))}}}else for(var f in n)if(n.hasOwnProperty(f)){var c=t.getElementById(f);if(c){var h=nt(t,c,n[f]);h&&(e=e.concat(h))}}return e.length?e:null}(t,n.elements);return a?(e=a,r=n.settings,i=r.duration,u=e.length,o=null,function(t,n){var a=r.iterations||1/0,l=(r.alternate&&a%2==0)^r.direction>0?i:0,s=t%i,f=1+(t-s)/i;n*=r.direction,r.alternate&&f%2==0&&(n=-n);var c=!1;if(f>a)s=l,c=!0,-1===r.fill&&(s=r.direction>0?0:i);else if(n<0&&(s=i-s),s===o)return!1;o=s;for(var h=0;h<u;h++)e[h](s);return c}):null}function rt(t,n){if(Y=n,!t||!t.root||!Array.isArray(t.animations))return null;var e=function(t){for(var n=document.getElementsByTagName("svg"),e=0;e<n.length;e++)if(n[e].id===t.root&&!n[e].svgatorAnimation)return n[e].svgatorAnimation=!0,n[e];return null}(t);if(!e)return null;var r=t.animations.map((function(t){return et(e,t)})).filter((function(t){return!!t}));return r.length?{svg:e,animations:r,animationSettings:t.animationSettings,options:t.options||void 0}:null}function it(t){return+("0x"+(t.replace(/[^0-9a-fA-F]+/g,"")||27))}function ut(t,n,e){return!t||!e||n>t.length?t:t.substring(0,n)+ut(t.substring(n+1),e,e)}function ot(t){var n=arguments.length>1&&void 0!==arguments[1]?arguments[1]:27;return!t||t%n?t%n:ot(t/n,n)}function at(t,n,e){if(t&&t.length){var r=it(e),i=it(n),u=ot(r)+5,o=ut(t,ot(r,5),u);return o=o.replace(/\x7c$/g,"==").replace(/\x2f$/g,"="),o=function(t,n,e){var r=+("0x"+t.substring(0,4));t=t.substring(4);for(var i=n%r+e%27,u=[],o=0;o<t.length;o+=2)if("|"!==t[o]){var a=+("0x"+t[o]+t[o+1])-i;u.push(a)}else{var l=+("0x"+t.substring(o+1,o+1+4))-i;o+=3,u.push(l)}return String.fromCharCode.apply(String,u)}(o=(o=atob(o)).replace(/[\x41-\x5A]/g,""),i,r),o=JSON.parse(o)}}var lt=[{key:"alternate",def:!1},{key:"fill",def:1},{key:"iterations",def:0},{key:"direction",def:1},{key:"speed",def:1},{key:"fps",def:100}],st=function(){function t(n,e){var i=this,u=arguments.length>2&&void 0!==arguments[2]?arguments[2]:null;r(this,t),this._id=0,this._running=!1,this._rollingBack=!1,this._animations=n,this._settings=e,(!u||u<"2022-05-02")&&delete this._settings.speed,lt.forEach((function(t){i._settings[t.key]=i._settings[t.key]||t.def})),this.duration=e.duration,this.offset=e.offset||0,this.rollbackStartOffset=0}return u(t,[{key:"alternate",get:function(){return this._settings.alternate}},{key:"fill",get:function(){return this._settings.fill}},{key:"iterations",get:function(){return this._settings.iterations}},{key:"direction",get:function(){return this._settings.direction}},{key:"speed",get:function(){return this._settings.speed}},{key:"fps",get:function(){return this._settings.fps}},{key:"maxFiniteDuration",get:function(){return this.iterations>0?this.iterations*this.duration:this.duration}},{key:"_apply",value:function(t){for(var n=arguments.length>1&&void 0!==arguments[1]?arguments[1]:{},e=this._animations,r=e.length,i=0,u=0;u<r;u++)n[u]?i++:(n[u]=e[u](t,1),n[u]&&i++);return i}},{key:"_rollback",value:function(t){var n=this,e=1/0,r=null;this.rollbackStartOffset=t,this._rollingBack=!0,this._running=!0;this._id=window.requestAnimationFrame((function i(u){if(n._rollingBack){null==r&&(r=u);var o=Math.round(t-(u-r)*n.speed);if(o>n.duration&&e!==1/0){var a=!!n.alternate&&o/n.duration%2>1,l=o%n.duration;o=(l+=a?n.duration:0)||n.duration}var s=(n.fps?1e3/n.fps:0)*n.speed,f=Math.max(0,o);f<=e-s&&(n.offset=f,e=f,n._apply(f));var c=n.iterations>0&&-1===n.fill&&o>=n.maxFiniteDuration;(o<=0||n.offset<o||c)&&n.stop(),n._id=window.requestAnimationFrame(i)}}))}},{key:"_start",value:function(){var t=this,n=arguments.length>0&&void 0!==arguments[0]?arguments[0]:0,e=-1/0,r=null,i={};this._running=!0;var u=function u(o){null==r&&(r=o);var a=Math.round((o-r)*t.speed+n),l=(t.fps?1e3/t.fps:0)*t.speed;if(a>=e+l&&!t._rollingBack&&(t.offset=a,e=a,t._apply(a,i)===t._animations.length))return void t.pause(!0);t._id=window.requestAnimationFrame(u)};this._id=window.requestAnimationFrame(u)}},{key:"_pause",value:function(){this._id&&window.cancelAnimationFrame(this._id),this._running=!1}},{key:"play",value:function(){if(!this._running)return this._rollingBack?this._rollback(this.offset):this._start(this.offset)}},{key:"stop",value:function(){this._pause(),this.offset=0,this.rollbackStartOffset=0,this._rollingBack=!1,this._apply(0)}},{key:"reachedToEnd",value:function(){return this.iterations>0&&this.offset>=this.iterations*this.duration}},{key:"restart",value:function(){var t=arguments.length>0&&void 0!==arguments[0]&&arguments[0];this.stop(t),this.play(t)}},{key:"pause",value:function(){this._pause()}},{key:"reverse",value:function(){this.direction=-this.direction}}],[{key:"build",value:function(t,n){delete t.animationSettings,t.options=at(t.options,t.root,"5c7f360c"),t.animations.map((function(n){n.settings=at(n.s,t.root,"5c7f360c"),delete n.s,t.animationSettings||(t.animationSettings=n.settings)}));var e=t.version;if(!(t=rt(t,n)))return null;var r=t.options||{},i=new this(t.animations,t.animationSettings,e);return{el:t.svg,options:r,player:i}}},{key:"push",value:function(t){return this.build(t)}},{key:"init",value:function(){var t=this,n=window.__SVGATOR_PLAYER__&&window.__SVGATOR_PLAYER__["5c7f360c"];Array.isArray(n)&&n.splice(0).forEach((function(n){return t.build(n)}))}}]),t}();function ft(t){return d(t)+""}function ct(t){var n=arguments.length>1&&void 0!==arguments[1]?arguments[1]:" ";return t&&t.length?t.map(ft).join(n):""}function ht(t){if(!t)return"transparent";if(null==t.a||t.a>=1){var n=function(t){return 1===(t=parseInt(t).toString(16)).length?"0"+t:t},e=function(t){return t.charAt(0)===t.charAt(1)},r=n(t.r),i=n(t.g),u=n(t.b);return e(r)&&e(i)&&e(u)&&(r=r.charAt(0),i=i.charAt(0),u=u.charAt(0)),"#"+r+i+u}return"rgba("+t.r+","+t.g+","+t.b+","+t.a+")"}function vt(t){return t?"url(#"+t+")":"none"}!function(){for(var t=0,n=["ms","moz","webkit","o"],e=0;e<n.length&&!window.requestAnimationFrame;++e)window.requestAnimationFrame=window[n[e]+"RequestAnimationFrame"],window.cancelAnimationFrame=window[n[e]+"CancelAnimationFrame"]||window[n[e]+"CancelRequestAnimationFrame"];window.requestAnimationFrame||(window.requestAnimationFrame=function(n){var e=Date.now(),r=Math.max(0,16-(e-t)),i=window.setTimeout((function(){n(e+r)}),r);return t=e+r,i},window.cancelAnimationFrame=window.clearTimeout)}();var yt={f:null,i:function(t,n,e){return 0===t?n:1===t?e:{x:B(t,n.x,e.x),y:B(t,n.y,e.y)}},u:function(t,n){return function(e){var r=n(e);t.setAttribute("rx",ft(r.x)),t.setAttribute("ry",ft(r.y))}}},gt={f:null,i:function(t,n,e){return 0===t?n:1===t?e:{width:B(t,n.width,e.width),height:B(t,n.height,e.height)}},u:function(t,n){return function(e){var r=n(e);t.setAttribute("width",ft(r.width)),t.setAttribute("height",ft(r.height))}}};Object.freeze({M:2,L:2,Z:0,H:1,V:1,C:6,Q:4,T:2,S:4,A:7});var dt={},pt=null;function mt(t){var n=function(){if(pt)return pt;if("object"!==("undefined"==typeof document?"undefined":e(document))||!document.createElementNS)return{};var t=document.createElementNS("http://www.w3.org/2000/svg","svg");return t&&t.style?(t.style.position="absolute",t.style.opacity="0.01",t.style.zIndex="-9999",t.style.left="-9999px",t.style.width="1px",t.style.height="1px",pt={svg:t}):{}}().svg;if(!n)return function(t){return null};var r=document.createElementNS(n.namespaceURI,"path");r.setAttributeNS(null,"d",t),r.setAttributeNS(null,"fill","none"),r.setAttributeNS(null,"stroke","none"),n.appendChild(r);var i=r.getTotalLength();return function(t){var n=r.getPointAtLength(i*t);return{x:n.x,y:n.y}}}function bt(t){return dt[t]?dt[t]:dt[t]=mt(t)}function wt(t,n,e,r){if(!t||!r)return!1;var i=["M",t.x,t.y];if(n&&e&&(i.push("C"),i.push(n.x),i.push(n.y),i.push(e.x),i.push(e.y)),n?!e:e){var u=n||e;i.push("Q"),i.push(u.x),i.push(u.y)}return n||e||i.push("L"),i.push(r.x),i.push(r.y),i.join(" ")}function xt(t,n,e,r){var i=arguments.length>4&&void 0!==arguments[4]?arguments[4]:1,u=wt(t,n,e,r),o=bt(u);try{return o(i)}catch(t){return null}}function At(t,n,e){return t+(n-t)*e}function kt(t,n,e){var r=arguments.length>3&&void 0!==arguments[3]&&arguments[3],i={x:At(t.x,n.x,e),y:At(t.y,n.y,e)};return r&&(i.a=_t(t,n)),i}function _t(t,n){return Math.atan2(n.y-t.y,n.x-t.x)}function St(t,n,e,r){var i=1-r;return i*i*t+2*i*r*n+r*r*e}function Ot(t,n,e,r){return 2*(1-r)*(n-t)+2*r*(e-n)}function jt(t,n,e,r){var i=arguments.length>4&&void 0!==arguments[4]&&arguments[4],u=xt(t,n,null,e,r);return u||(u={x:St(t.x,n.x,e.x,r),y:St(t.y,n.y,e.y,r)}),i&&(u.a=Mt(t,n,e,r)),u}function Mt(t,n,e,r){return Math.atan2(Ot(t.y,n.y,e.y,r),Ot(t.x,n.x,e.x,r))}function Pt(t,n,e,r,i){var u=i*i;return i*u*(r-t+3*(n-e))+3*u*(t+e-2*n)+3*i*(n-t)+t}function Et(t,n,e,r,i){var u=1-i;return 3*(u*u*(n-t)+2*u*i*(e-n)+i*i*(r-e))}function It(t,n,e,r,i){var u=arguments.length>5&&void 0!==arguments[5]&&arguments[5],o=xt(t,n,e,r,i);return o||(o={x:Pt(t.x,n.x,e.x,r.x,i),y:Pt(t.y,n.y,e.y,r.y,i)}),u&&(o.a=Rt(t,n,e,r,i)),o}function Rt(t,n,e,r,i){return Math.atan2(Et(t.y,n.y,e.y,r.y,i),Et(t.x,n.x,e.x,r.x,i))}function Ft(t,n,e){var r=arguments.length>3&&void 0!==arguments[3]&&arguments[3];if(Tt(n)){if(qt(e))return jt(n,e.start,e,t,r)}else if(Tt(e)){if(Bt(n))return jt(n,n.end,e,t,r)}else{if(Bt(n))return qt(e)?It(n,n.end,e.start,e,t,r):jt(n,n.end,e,t,r);if(qt(e))return jt(n,e.start,e,t,r)}return kt(n,e,t,r)}function Nt(t,n,e){var r=Ft(t,n,e,!0);return r.a=function(t){return arguments.length>1&&void 0!==arguments[1]&&arguments[1]?t+Math.PI:t}(r.a)/m,r}function Tt(t){return!t.type||"corner"===t.type}function qt(t){return null!=t.start&&!Tt(t)}function Bt(t){return null!=t.end&&!Tt(t)}var Lt=new N;var Ct={f:ft,i:q},Dt={f:ft,i:L};function zt(t,n,e){return t.map((function(t){return function(t,n,e){var r=t.v;if(!r||"g"!==r.t||r.s||!r.v||!r.r)return t;var i=e.getElementById(r.r),u=i&&i.querySelectorAll("stop")||[];return r.s=r.v.map((function(t,n){var e=u[n]&&u[n].getAttribute("offset");return{c:t,o:e=d(parseInt(e)/100)}})),delete r.v,t}(t,0,e)}))}var Vt={gt:"gradientTransform",c:{x:"cx",y:"cy"},rd:"r",f:{x:"x1",y:"y1"},to:{x:"x2",y:"y2"}};function Gt(t,n,r,i,u,o,a,l){return zt(t,0,l),n=function(t,n,e){for(var r,i,u,o=t.length-1,a={},l=0;l<=o;l++)(r=t[l]).e&&(r.e=n(r.e)),r.v&&"g"===(i=r.v).t&&i.r&&(u=e.getElementById(i.r))&&(a[i.r]={e:u,s:u.querySelectorAll("stop")});return a}(t,i,l),function(i){var u=r(i,t,Yt);if(!u)return"none";if("c"===u.t)return ht(u.v);if("g"===u.t){if(!n[u.r])return vt(u.r);var o=n[u.r];return function(t,n){for(var e=t.s,r=e.length;r<n.length;r++){var i=e[e.length-1].cloneNode();i.id=Qt(i.id),t.e.appendChild(i),e=t.s=t.e.querySelectorAll("stop")}for(var u=0,o=e.length,a=n.length-1;u<o;u++)e[u].setAttribute("stop-color",ht(n[Math.min(u,a)].c)),e[u].setAttribute("offset",n[Math.min(u,a)].o)}(o,u.s),Object.keys(Vt).forEach((function(t){if(void 0!==u[t])if("object"!==e(Vt[t])){var n,r="gt"===t?(n=u[t],Array.isArray(n)?"matrix("+n.join(" ")+")":""):u[t],i=Vt[t];o.e.setAttribute(i,r)}else Object.keys(Vt[t]).forEach((function(n){if(void 0!==u[t][n]){var e=u[t][n],r=Vt[t][n];o.e.setAttribute(r,e)}}))})),vt(u.r)}return"none"}}function Yt(t,e,r){if(0===t)return e;if(1===t)return r;if(e&&r){var i=e.t;if(i===r.t)switch(e.t){case"c":return{t:i,v:z(t,e.v,r.v)};case"g":if(e.r===r.r){var u={t:i,s:$t(t,e.s,r.s),r:e.r};return e.gt&&r.gt&&(u.gt=function(t,n,e){var r=n.length;if(r!==e.length)return T(t,n,e);for(var i=new Array(r),u=0;u<r;u++)i[u]=q(t,n[u],e[u]);return i}(t,e.gt,r.gt)),e.c?(u.c=C(t,e.c,r.c),u.rd=B(t,e.rd,r.rd)):e.f&&(u.f=C(t,e.f,r.f),u.to=C(t,e.to,r.to)),u}}if("c"===e.t&&"g"===r.t||"c"===r.t&&"g"===e.t){var o="c"===e.t?e:r,a="g"===e.t?n({},e):n({},r),l=a.s.map((function(t){return{c:o.v,o:t.o}}));return a.s="c"===e.t?$t(t,l,a.s):$t(t,a.s,l),a}}return T(t,e,r)}function $t(t,n,e){if(n.length===e.length)return n.map((function(n,r){return Ut(t,n,e[r])}));for(var r=Math.max(n.length,e.length),i=[],u=0;u<r;u++){var o=Ut(t,n[Math.min(u,n.length-1)],e[Math.min(u,e.length-1)]);i.push(o)}return i}function Ut(t,n,e){return{o:L(t,n.o,e.o||0),c:z(t,n.c,e.c||{})}}function Qt(t){return t.replace(/-fill-([0-9]+)$/,(function(t,n){return"-fill-"+(+n+1)}))}var Ht={fill:Gt,"fill-opacity":Dt,stroke:Gt,"stroke-opacity":Dt,"stroke-width":Ct,"stroke-dashoffset":{f:ft,i:q},"stroke-dasharray":{f:function(t){var n=arguments.length>1&&void 0!==arguments[1]?arguments[1]:" ";return t&&t.length>0&&(t=t.map((function(t){return d(t,4)}))),ct(t,n)},i:function(t,n,e){var r,i,u,o=n.length,a=e.length;if(o!==a)if(0===o)n=V(o=a,0);else if(0===a)a=o,e=V(o,0);else{var l=(u=(r=o)*(i=a)/function(t,n){for(var e;n;)e=n,n=t%n,t=e;return t||1}(r,i))<0?-u:u;n=G(n,Math.floor(l/o)),e=G(e,Math.floor(l/a)),o=a=l}for(var s=[],f=0;f<o;f++)s.push(d(B(t,n[f],e[f])));return s}},opacity:Dt,transform:function(t,n,r,i){if(!(t=function(t,n){if(!t||"object"!==e(t))return null;var r=!1;for(var i in t)t.hasOwnProperty(i)&&(t[i]&&t[i].length?(t[i].forEach((function(t){t.e&&(t.e=n(t.e))})),r=!0):delete t[i]);return r?t:null}(t,i)))return null;var u=function(e,i,u){var o=arguments.length>3&&void 0!==arguments[3]?arguments[3]:null;return t[e]?r(i,t[e],u):n&&n[e]?n[e]:o};return n&&n.a&&t.o?function(n){var e=r(n,t.o,Nt);return Lt.recomposeSelf(e,u("r",n,q,0)+e.a,u("k",n,C),u("s",n,C),u("t",n,C)).toString()}:function(t){return Lt.recomposeSelf(u("o",t,Ft,null),u("r",t,q,0),u("k",t,C),u("s",t,C),u("t",t,C)).toString()}},r:Ct,"#size":gt,"#radius":yt,_:function(t,n){if(Array.isArray(t))for(var e=0;e<t.length;e++)this[t[e]]=n;else this[t]=n}},Jt=function(t){!function(t,n){if("function"!=typeof n&&null!==n)throw new TypeError("Super expression must either be null or a function");t.prototype=Object.create(n&&n.prototype,{constructor:{value:t,writable:!0,configurable:!0}}),n&&l(t,n)}(o,t);var n,e,i=(n=o,e=s(),function(){var t,r=a(n);if(e){var i=a(this).constructor;t=Reflect.construct(r,arguments,i)}else t=r.apply(this,arguments);return c(this,t)});function o(){return r(this,o),i.apply(this,arguments)}return u(o,null,[{key:"build",value:function(t){var n=h(a(o),"build",this).call(this,t,Ht);if(!n)return null;n.el,n.options,function(t,n,e){t.play()}(n.player)}}]),o}(st);return Jt.init(),Jt}));
(function(s,i,o,w,a,b){w[o]=w[o]||{};w[o][s]=w[o][s]||[];w[o][s].push(i);})('5c7f360c',{"root":"eYaLBNIxodl1","version":"2022-05-04","animations":[{"elements":{"eYaLBNIxodl3":{"transform":{"data":{"t":{"x":-1794.299998,"y":-673.799998}},"keys":{"o":[{"t":4400,"v":{"x":1794.300002,"y":673.8,"type":"corner"}},{"t":5400,"v":{"x":1502.775394,"y":2100.067176,"type":"corner"}}],"r":[{"t":0,"v":0},{"t":700,"v":3.2815},{"t":1800,"v":0.286425},{"t":2500,"v":2.48534},{"t":3000,"v":-1.47223},{"t":3800,"v":3.216535},{"t":4400,"v":-0.21776},{"t":4800,"v":38.161261},{"t":5000,"v":2.945511},{"t":5500,"v":-0.167367},{"t":6300,"v":3.207008},{"t":6800,"v":-0.392367}]}}},"eYaLBNIxodl5":{"opacity":[{"t":4600,"v":1},{"t":5200,"v":0}]},"eYaLBNIxodl37":{"transform":{"data":{"o":{"x":1423.9,"y":704.750003,"type":"corner"},"t":{"x":-1423.9,"y":-704.750001}},"keys":{"s":[{"t":0,"v":{"x":1,"y":1}},{"t":1000,"v":{"x":1,"y":0.312404}},{"t":1700,"v":{"x":1,"y":0.799155}},{"t":2800,"v":{"x":1,"y":0.37042}},{"t":3700,"v":{"x":1,"y":0.65439}},{"t":4600,"v":{"x":1,"y":0.281335}},{"t":5300,"v":{"x":1,"y":0.743477}},{"t":6000,"v":{"x":1,"y":0.259061}},{"t":6800,"v":{"x":1,"y":0.632123}},{"t":7800,"v":{"x":1,"y":0.21756}},{"t":8800,"v":{"x":1,"y":0.448577}},{"t":9600,"v":{"x":1,"y":0.137348}},{"t":10000,"v":{"x":1,"y":0.41321}}]}}},"eYaLBNIxodl73":{"transform":{"data":{"o":{"x":1321.8,"y":726.8,"type":"corner"},"t":{"x":-1321.799998,"y":-726.799999}},"keys":{"s":[{"t":0,"v":{"x":1,"y":1}},{"t":1000,"v":{"x":1,"y":-0.41717}},{"t":1700,"v":{"x":1,"y":0.778786}},{"t":2800,"v":{"x":1,"y":-0.368039}},{"t":3700,"v":{"x":1,"y":0.729711}},{"t":4600,"v":{"x":1,"y":-0.332692}},{"t":5300,"v":{"x":1,"y":0.871763}},{"t":6000,"v":{"x":1,"y":-0.498201}},{"t":6800,"v":{"x":1,"y":0.773551}},{"t":7800,"v":{"x":1,"y":-0.41717}},{"t":8800,"v":{"x":1,"y":0.550486}},{"t":9600,"v":{"x":1,"y":-0.41717}},{"t":10000,"v":{"x":1,"y":0.602596}}]}}}},"s":"MBDA1ZWMwNjdhOWJhYjOdhNmI5YWViNGIzNjcC3Zjc2NzU3NTc1NzU3AMU02N2E5YWVKYjdhYSWE4YjlhZUViNGIzNjNc3Zjc2NzE2N2FlYjlNhYWI3YTZiOWFlYjRiCM2I4Njc3Zjc2NzE2NU0hhYmFlYjFiMUs2NzUdmNzY3MTY3YTZJYjFDKYjlhYWI3YjNNYTZiLOWFhTjY3N2ZhYmE2YFjFiOFFhYTcxNjdiOFRJiNWFhYWFhOTY3N2YC3NjcxNjdhYmI1YjhYWNjc3Zjc2NzU3NWMy"}],"options":"MDDAxMDg4MmY4MDgxNmKU3Zkg4MTJmNDcyZlEV3OTdjNmU3MTJmOGE/D"},'__SVGATOR_PLAYER__',window)
]]>
</script>

</svg>
