<svg width="41" height="41" viewBox="0 0 41 41" fill="none" xmlns="http://www.w3.org/2000/svg">
<path d="M36.4777 17.3165C34.8994 9.60812 28.0327 4.01312 20.151 4.01312C10.961 4.01312 3.48438 11.4898 3.48438 20.6798C3.48438 28.5615 9.07938 35.4281 16.7877 37.0065C17.0577 37.0638 17.3378 37.0523 17.6023 36.9731C17.8667 36.8939 18.107 36.7495 18.301 36.5531L36.0227 18.8315C36.4194 18.4348 36.5894 17.8681 36.4777 17.3165ZM18.4844 30.6798C18.4767 28.0237 19.2695 25.427 20.7594 23.2281C21.2395 22.5195 21.7852 21.8577 22.3894 21.2515C22.9949 20.6482 23.6555 20.1031 24.3627 19.6231C25.0774 19.142 25.8364 18.7301 26.6294 18.3931C27.431 18.0548 28.2727 17.7931 29.131 17.6165C30.3211 17.3801 31.5376 17.3049 32.7477 17.3931L18.5327 31.6081C18.511 31.2998 18.4844 30.9915 18.4844 30.6798ZM6.81771 20.6798C6.81771 13.3281 12.7994 7.34646 20.151 7.34646C24.9994 7.34646 29.3644 9.99479 31.6994 14.0215C30.6117 14.0254 29.5271 14.1359 28.461 14.3515C27.3894 14.5715 26.3377 14.8981 25.3294 15.3231C24.3387 15.7446 23.3905 16.2597 22.4977 16.8615C21.6094 17.4631 20.781 18.1465 20.0327 18.8948C19.2844 19.6431 18.6027 20.4698 17.9977 21.3615C17.3994 22.2498 16.881 23.2015 16.461 24.1915C15.5955 26.2451 15.1501 28.4512 15.151 30.6798C15.151 31.4981 15.231 32.3115 15.3494 33.1148C10.2994 31.1598 6.81771 26.2398 6.81771 20.6798Z" fill="#C09D2A"/>
</svg>
