<svg width="26" height="26" viewBox="0 0 26 26" fill="none" xmlns="http://www.w3.org/2000/svg">
<path d="M2.3008 13.2771H4.38164C4.37916 12.1833 4.59267 11.0998 5.00992 10.0887C5.42717 9.07762 6.03994 8.15888 6.81309 7.38518C7.5703 6.62546 8.46873 6.02109 9.45783 5.60607C11.4965 4.7591 13.7857 4.74379 15.8356 5.56341C15.8556 6.23705 16.1376 6.87631 16.6216 7.34532C17.1055 7.81432 17.7533 8.07609 18.4273 8.07498C19.8693 8.07498 21.0283 6.91595 21.0283 5.47394C21.0283 4.03192 19.8693 2.87289 18.4273 2.87289C17.7104 2.87289 17.0622 3.16005 16.593 3.6272C14.0638 2.61487 11.1589 2.63048 8.64943 3.68858C7.41251 4.20847 6.28874 4.96437 5.3409 5.91403C4.39081 6.86133 3.63454 7.98479 3.11441 9.22152C2.57464 10.5053 2.29798 11.8844 2.3008 13.2771ZM20.376 16.5252C19.9588 17.5157 19.3595 18.4063 18.5968 19.1689C17.8342 19.9316 16.9436 20.5308 15.9521 20.9481C13.9134 21.795 11.6242 21.8103 9.57436 20.9907C9.55431 20.3171 9.27234 19.6778 8.78837 19.2088C8.30441 18.7398 7.65661 18.478 6.98268 18.4791C5.54066 18.4791 4.38164 19.6382 4.38164 21.0802C4.38164 22.5222 5.54066 23.6812 6.98268 23.6812C7.69952 23.6812 8.3477 23.3941 8.81693 22.9269C10.0524 23.4259 11.3725 23.682 12.705 23.6812C14.751 23.6852 16.7526 23.0848 18.4586 21.9553C20.1646 20.8258 21.4991 19.2177 22.2945 17.3326C22.835 16.049 23.112 14.6698 23.1091 13.2771H21.0283C21.0309 14.3926 20.8091 15.4972 20.376 16.5252Z" fill="#C09D2A"/>
<path d="M12.7058 8.55563C10.1027 8.55563 7.98438 10.6739 7.98438 13.277C7.98438 15.8802 10.1027 17.9985 12.7058 17.9985C15.3089 17.9985 17.4272 15.8802 17.4272 13.277C17.4272 10.6739 15.3089 8.55563 12.7058 8.55563ZM12.7058 15.9176C11.2502 15.9176 10.0652 14.7326 10.0652 13.277C10.0652 11.8215 11.2502 10.6365 12.7058 10.6365C14.1613 10.6365 15.3464 11.8215 15.3464 13.277C15.3464 14.7326 14.1613 15.9176 12.7058 15.9176Z" fill="#C09D2A"/>
</svg>
