<svg width="30" height="30" viewBox="0 0 30 30" fill="none" xmlns="http://www.w3.org/2000/svg">
<path d="M21.3263 14.025C22.0824 13.0525 22.4951 11.8569 22.5 10.625C22.5 7.52375 19.9762 5 16.875 5H7.5V23.75H17.5C20.6012 23.75 23.125 21.2262 23.125 18.125C23.1233 17.3546 22.9627 16.5929 22.6532 15.8874C22.3437 15.1819 21.892 14.5479 21.3263 14.025ZM16.875 8.75C17.9088 8.75 18.75 9.59125 18.75 10.625C18.75 11.6588 17.9088 12.5 16.875 12.5H11.25V8.75H16.875ZM17.5 20H11.25V16.25H17.5C18.5338 16.25 19.375 17.0912 19.375 18.125C19.375 19.1588 18.5338 20 17.5 20Z" fill="#4A4A4A"/>
</svg>
