<svg width="41" height="41" viewBox="0 0 41 41" fill="none" xmlns="http://www.w3.org/2000/svg">
<path d="M23.553 4.50144C23.3983 4.34653 23.2146 4.22363 23.0125 4.13978C22.8103 4.05593 22.5935 4.01277 22.3746 4.01277C22.1557 4.01277 21.939 4.05593 21.7368 4.13978C21.5346 4.22363 21.3509 4.34653 21.1963 4.50144L11.463 14.2348C11.438 14.2331 11.4146 14.2198 11.3896 14.2198C11.1707 14.2195 10.954 14.2626 10.7517 14.3464C10.5495 14.4302 10.3659 14.5531 10.2113 14.7081L7.85464 17.0648C7.3893 17.5285 7.02041 18.0797 6.76925 18.6868C6.51809 19.2938 6.38964 19.9445 6.3913 20.6014C6.3913 21.9381 6.91297 23.1948 7.8563 24.1364L9.03463 25.3148L5.49797 28.8514C5.03153 29.3095 4.66216 29.8568 4.41189 30.4607C4.16162 31.0646 4.03558 31.7127 4.0413 32.3664C4.03343 33.0988 4.18828 33.8237 4.49466 34.489C4.80104 35.1542 5.25131 35.7431 5.81297 36.2131C6.67797 36.9448 7.79297 37.3464 8.95463 37.3464C10.3446 37.3464 11.7113 36.7781 12.7046 35.7848L16.1046 32.3864L17.283 33.5631C19.173 35.4514 22.4646 35.4531 24.353 33.5648L26.7113 31.2081C26.8663 31.0535 26.9892 30.8699 27.073 30.6677C27.1568 30.4654 27.1999 30.2487 27.1996 30.0298C27.1996 29.9864 27.178 29.9464 27.1746 29.9031L36.8863 20.1914C37.0412 20.0368 37.1641 19.8531 37.248 19.6509C37.3318 19.4487 37.375 19.232 37.375 19.0131C37.375 18.7942 37.3318 18.5775 37.248 18.3753C37.1641 18.1731 37.0412 17.9894 36.8863 17.8348L23.553 4.50144ZM21.9946 31.2081C21.6771 31.5113 21.255 31.6803 20.816 31.68C20.377 31.6797 19.955 31.51 19.638 31.2064L17.2813 28.8514C17.1267 28.6965 16.943 28.5736 16.7408 28.4898C16.5386 28.4059 16.3219 28.3628 16.103 28.3628C15.8841 28.3628 15.6673 28.4059 15.4651 28.4898C15.263 28.5736 15.0793 28.6965 14.9246 28.8514L10.348 33.4264C9.97919 33.7983 9.47832 34.0092 8.95463 34.0131C8.59391 34.019 8.2429 33.8961 7.96464 33.6664C7.77365 33.5084 7.62124 33.3088 7.519 33.083C7.41676 32.8571 7.36739 32.6109 7.37463 32.3631C7.37289 32.1486 7.41434 31.9359 7.49652 31.7378C7.5787 31.5397 7.69992 31.3601 7.85297 31.2098L12.568 26.4948C12.7229 26.3401 12.8458 26.1565 12.9296 25.9543C13.0135 25.7521 13.0566 25.5353 13.0566 25.3164C13.0566 25.0976 13.0135 24.8808 12.9296 24.6786C12.8458 24.4764 12.7229 24.2928 12.568 24.1381L10.2096 21.7798C10.0546 21.6257 9.93177 21.4423 9.84822 21.2403C9.76468 21.0383 9.7221 20.8217 9.72297 20.6031C9.72297 20.1564 9.8963 19.7381 10.2113 19.4231L11.3896 18.2448L23.1746 30.0314L21.9946 31.2081ZM25.143 27.2214L14.1663 16.2448L22.3746 8.03644L33.3513 19.0131L25.143 27.2214Z" fill="#C09D2A"/>
</svg>
