<svg width="26" height="26" viewBox="0 0 26 26" fill="none" xmlns="http://www.w3.org/2000/svg">
<path d="M20.7675 12.3532C20.3128 8.77205 17.2457 5.99414 13.5428 5.99414C10.6754 5.99414 8.18469 7.67025 7.04752 10.3119C4.8127 10.9798 3.13867 13.0898 3.13867 15.3579C3.13867 18.2263 5.47233 20.56 8.34075 20.56H9.38117V18.4791H8.34075C6.61991 18.4791 5.21951 17.0787 5.21951 15.3579C5.21951 13.8971 6.46696 12.4895 8.00054 12.22L8.60502 12.1139L8.80478 11.5333C9.53619 9.39942 11.3517 8.07497 13.5428 8.07497C16.4113 8.07497 18.7449 10.4086 18.7449 13.2771V14.3175H19.7853C20.9329 14.3175 21.8662 15.2507 21.8662 16.3983C21.8662 17.5459 20.9329 18.4791 19.7853 18.4791H17.7045V20.56H19.7853C22.0805 20.56 23.947 18.6935 23.947 16.3983C23.9458 15.4656 23.6319 14.5602 23.0555 13.8269C22.4791 13.0936 21.6735 12.5747 20.7675 12.3532Z" fill="#C09D2A"/>
<path d="M14.5829 15.3579V11.1962H12.5021V15.3579H9.38086L13.5425 20.56L17.7042 15.3579H14.5829Z" fill="#C09D2A"/>
</svg>
