<svg width="41" height="41" viewBox="0 0 41 41" fill="none" xmlns="http://www.w3.org/2000/svg">
<path d="M33.8535 4.01312H17.1868C15.3485 4.01312 13.8535 5.50812 13.8535 7.34646V14.0131H7.18685C5.34852 14.0131 3.85352 15.5081 3.85352 17.3465V34.0131C3.85352 35.8515 5.34852 37.3465 7.18685 37.3465H23.8535C25.6918 37.3465 27.1868 35.8515 27.1868 34.0131V27.3465H33.8535C35.6918 27.3465 37.1868 25.8515 37.1868 24.0131V7.34646C37.1868 5.50812 35.6918 4.01312 33.8535 4.01312ZM7.18685 34.0131V17.3465H23.8535L23.8568 34.0131H7.18685ZM33.8535 24.0131H27.1868V17.3465C27.1868 15.5081 25.6918 14.0131 23.8535 14.0131H17.1868V7.34646H33.8535V24.0131Z" fill="#C09D2A"/>
</svg>
