<svg width="30" height="30" viewBox="0 0 30 30" fill="none" xmlns="http://www.w3.org/2000/svg">
<path d="M8.44774 10.9475L6.68024 9.18C5.66737 10.1937 4.88278 11.4122 4.37899 12.7538L6.72024 13.63C7.09868 12.6231 7.68762 11.7086 8.44774 10.9475ZM23.7502 16.2487C23.7543 14.9352 23.4973 13.6339 22.9943 12.4205C22.4914 11.207 21.7524 10.1055 20.8202 9.18C19.2542 7.60603 17.2043 6.60443 15.0002 6.33625V2.5L8.75024 7.5L15.0002 12.5V8.86125C16.5363 9.11492 17.9538 9.84469 19.0527 10.9475C19.7517 11.642 20.3058 12.4682 20.683 13.3785C21.0602 14.2887 21.253 15.2647 21.2502 16.25V16.2525C21.2502 16.665 21.209 17.0713 21.1427 17.4738C21.134 17.5275 21.129 17.5837 21.119 17.6375C20.8971 18.7902 20.4101 19.8755 19.6965 20.8075C19.4965 21.0687 19.2827 21.3225 19.0515 21.5538C18.7691 21.833 18.4648 22.0893 18.1415 22.32C17.2938 22.9406 16.3235 23.3732 15.2952 23.5888C15.1177 23.6263 14.939 23.6513 14.7577 23.675C14.6802 23.6863 14.6052 23.7012 14.5277 23.7087C13.735 23.79 12.9345 23.7465 12.1552 23.58L11.6252 26.0238C12.6655 26.2468 13.7345 26.3041 14.7927 26.1937C14.879 26.185 14.9652 26.1675 15.0515 26.1562C15.3077 26.1237 15.5627 26.0862 15.814 26.0337L15.8802 26.0225L15.879 26.0162C16.8125 25.8162 17.7119 25.4814 18.549 25.0225L18.5502 25.0237L18.5852 25C19.0269 24.7535 19.449 24.4736 19.8477 24.1625C20.1852 23.9012 20.5127 23.625 20.819 23.3188C21.129 23.01 21.4065 22.6775 21.6702 22.3375C21.6965 22.3025 21.7315 22.2712 21.7577 22.2362L21.7502 22.2312C22.3238 21.4695 22.784 20.6287 23.1165 19.735L23.1265 19.7388C23.1627 19.6413 23.189 19.5412 23.2215 19.4425C23.2677 19.305 23.3152 19.1662 23.3552 19.0262C23.4052 18.8512 23.4465 18.675 23.4865 18.4975C23.514 18.3738 23.5465 18.2538 23.569 18.1288C23.609 17.915 23.639 17.6988 23.664 17.4838C23.6765 17.3888 23.6927 17.2963 23.7015 17.2C23.7302 16.8888 23.7477 16.575 23.7477 16.2587C23.7502 16.2562 23.7502 16.2537 23.7502 16.2487ZM7.74649 20.7463L5.74649 22.2475C6.60663 23.3927 7.70148 24.3409 8.95774 25.0288L10.159 22.8362C9.21457 22.3202 8.39189 21.6075 7.74649 20.7463ZM6.25024 16.25C6.25024 16.0688 6.25649 15.8913 6.26899 15.7138L3.77649 15.535C3.6719 16.9671 3.87785 18.4049 4.38024 19.75L6.72149 18.8737C6.40833 18.0345 6.24871 17.1458 6.25024 16.25Z" fill="#4A4A4A"/>
</svg>
