<svg width="41" height="41" viewBox="0 0 41 41" fill="none" xmlns="http://www.w3.org/2000/svg">
<path d="M33.9232 4.01311H13.9232C12.0848 4.01311 10.5898 5.50811 10.5898 7.34644V27.3464C10.5898 29.1848 12.0848 30.6798 13.9232 30.6798H33.9232C35.7615 30.6798 37.2565 29.1848 37.2565 27.3464V7.34644C37.2565 5.50811 35.7615 4.01311 33.9232 4.01311ZM13.9232 27.3464V7.34644H33.9232L33.9265 27.3464H13.9232Z" fill="#C09D2A"/>
<path d="M7.25716 14.0131H3.92383V34.0131C3.92383 35.8514 5.41883 37.3464 7.25716 37.3464H27.2572V34.0131H7.25716V14.0131ZM25.5905 10.6798H22.2572V15.6798H17.2572V19.0131H22.2572V24.0131H25.5905V19.0131H30.5905V15.6798H25.5905V10.6798Z" fill="#C09D2A"/>
</svg>
