<svg width="41" height="40" viewBox="0 0 41 40" fill="none" xmlns="http://www.w3.org/2000/svg">
<path d="M20.5007 26.6667C24.1773 26.6667 27.1673 23.6767 27.1673 20C27.1673 16.3233 24.1773 13.3333 20.5007 13.3333C16.824 13.3333 13.834 16.3233 13.834 20C13.834 23.6767 16.824 26.6667 20.5007 26.6667ZM20.5007 16.6667C22.3073 16.6667 23.834 18.1933 23.834 20C23.834 21.8067 22.3073 23.3333 20.5007 23.3333C18.694 23.3333 17.1673 21.8067 17.1673 20C17.1673 18.1933 18.694 16.6667 20.5007 16.6667Z" fill="#C09D2A"/>
<path d="M5.2413 26.8933L6.90797 29.7767C7.79297 31.305 9.92297 31.8783 11.458 30.9933L12.3396 30.4833C13.3039 31.2418 14.367 31.8654 15.4996 32.3367V33.3333C15.4996 35.1717 16.9946 36.6667 18.833 36.6667H22.1663C24.0046 36.6667 25.4996 35.1717 25.4996 33.3333V32.3367C26.6319 31.8653 27.6949 31.2424 28.6596 30.485L29.5413 30.995C31.0796 31.8783 33.2046 31.3083 34.093 29.7767L35.758 26.895C36.1997 26.1295 36.3195 25.22 36.091 24.3662C35.8626 23.5125 35.3046 22.7843 34.5396 22.3417L33.698 21.855C33.8769 20.6259 33.8769 19.3774 33.698 18.1483L34.5396 17.6617C35.3043 17.2187 35.8619 16.4906 36.0903 15.6369C36.3187 14.7833 36.1992 13.8739 35.758 13.1083L34.093 10.2267C33.208 8.69334 31.0796 8.11834 29.5413 9.00668L28.6596 9.51668C27.6954 8.75819 26.6323 8.13467 25.4996 7.66334V6.66668C25.4996 4.82834 24.0046 3.33334 22.1663 3.33334H18.833C16.9946 3.33334 15.4996 4.82834 15.4996 6.66668V7.66334C14.3674 8.13474 13.3043 8.75765 12.3396 9.51501L11.458 9.00501C9.91797 8.12001 7.7913 8.69334 6.9063 10.225L5.2413 13.1067C4.79961 13.8722 4.67982 14.7817 4.90826 15.6354C5.1367 16.4892 5.69468 17.2174 6.45964 17.66L7.3013 18.1467C7.12169 19.3751 7.12169 20.6232 7.3013 21.8517L6.45964 22.3383C5.69491 22.7816 5.13719 23.5101 4.90879 24.364C4.6804 25.2179 4.79998 26.1275 5.2413 26.8933ZM10.7846 22.2967C10.5964 21.5456 10.5007 20.7743 10.4996 20C10.4996 19.23 10.5963 18.4567 10.783 17.7033C10.8709 17.3522 10.842 16.982 10.7006 16.6488C10.5593 16.3156 10.3132 16.0375 9.99964 15.8567L8.12797 14.7733L9.7913 11.8917L11.6996 12.995C12.0108 13.1751 12.3721 13.2494 12.7291 13.2067C13.0861 13.164 13.4196 13.0067 13.6796 12.7583C14.8072 11.6859 16.1669 10.888 17.653 10.4267C17.9943 10.3225 18.2932 10.1114 18.5057 9.82456C18.7181 9.53772 18.8328 9.19027 18.833 8.83334V6.66668H22.1663V8.83334C22.1665 9.19027 22.2812 9.53772 22.4936 9.82456C22.706 10.1114 23.0049 10.3225 23.3463 10.4267C24.8321 10.8887 26.1917 11.6865 27.3196 12.7583C27.5799 13.0062 27.9134 13.1632 28.2703 13.2059C28.6272 13.2485 28.9883 13.1746 29.2996 12.995L31.2063 11.8933L32.873 14.775L30.9996 15.8567C30.6863 16.0377 30.4404 16.3158 30.299 16.649C30.1577 16.9821 30.1287 17.3522 30.2163 17.7033C30.403 18.4567 30.4996 19.23 30.4996 20C30.4996 20.7683 30.403 21.5417 30.2146 22.2967C30.1272 22.648 30.1565 23.0182 30.2981 23.3514C30.4397 23.6846 30.686 23.9626 30.9996 24.1433L32.8713 25.225L31.208 28.1067L29.2996 27.005C28.9885 26.8247 28.6272 26.7502 28.2701 26.7929C27.9131 26.8356 27.5795 26.9931 27.3196 27.2417C26.1921 28.3141 24.8324 29.112 23.3463 29.5733C23.0049 29.6776 22.706 29.8886 22.4936 30.1755C22.2812 30.4623 22.1665 30.8097 22.1663 31.1667L22.1696 33.3333H18.833V31.1667C18.8328 30.8097 18.7181 30.4623 18.5057 30.1755C18.2932 29.8886 17.9943 29.6776 17.653 29.5733C16.1671 29.1113 14.8076 28.3135 13.6796 27.2417C13.4201 26.9924 13.0864 26.8345 12.729 26.7921C12.3717 26.7497 12.0103 26.825 11.6996 27.0067L9.79297 28.11L8.1263 25.2283L9.99964 24.1433C10.3133 23.9626 10.5596 23.6846 10.7012 23.3514C10.8428 23.0182 10.8721 22.648 10.7846 22.2967Z" fill="#C09D2A"/>
</svg>
